/* XPM */
static char *_ca9f08705aa48befb6f1245cf080f47W5UKV1JFblwPWIv0[] = {
/* columns rows colors chars-per-pixel */
"128 128 9 1 ",
"  c black",
". c gray29",
"X c gray32",
"o c #727272",
"O c gray45",
"+ c gray46",
"@ c #797979",
"# c #808080",
"$ c #9D9994",
/* pixels */
".XOOOOOOoooooo$...OO+O+O+++@++$..X@++@@+++++++$..X++++O+OOOOOO$..XOOOOOOoooooo$..XOOOO+O+++@++$..X+++++@++@+@+$..X+++O+OOOOOOO$.",
"O.XOOOoOooooo$.oo.XOO+O++++++$.@@.X++++++@+@+$.@+.X++++OOOOOO$.OO.XOOOOOooooo$.oO.XOOOO++++++$.+@.X@@++++@+++$.@+.X+O+O+OOOOO$.O",
"OO.XooooooOO$.ooOO.XOOO++O++$.+@@+.X@@++++++$.+++@.X+OO+OOOO$.OOOO.X+OOOoooo$.ooOO..+OO+++++$.+@@+.X+@+@++++$.@+@+.X+O++OOOO$.OO",
"OOO..oooooO$.oooOOO.XOO+@@@$.@+@@@+.X+@+@+@$.@+@+++.X++OOOO$.OOOOOO..OOOooo$.oooOOO.XOO++@@$.@@@@@@.X+@++@+$.++++++.X+++OOO$.OOO",
"OOOO.XOOoo$.OOOOOOoo..OO@+$.@@@@@@+@.X@+++$.+@+++@+@.X+++O$.OOOOOOOO.X+OOO$.oooooooo.XOO@@$.+@@++@+@.X+@++$.@+@+++@+.X+++O$.OOOO",
"OOOOO.XOO$.OOOOOOOooO.XO+$.@@+@+@+@@@.X@@$.++++@+++++.X++$.OOOOOOOOOO..OO$.OooooooooO.X++$.@@@@@@@@@@.X+@$.@+++++@+++.X++$.OOOOO",
"OOOOOO.X$.ooOoOOOoooOO..$.+@+@@@@@@@+@.X$.@+++@++@+++@.X$.OOOOOOOOOOOO.X$.oooooooooOOO.X$.+@++@+@@+@+@.X$.+@++@+++++++.X$.OOOOOO",
"OOOOOOO..Ooooo+@OoooOOO..O@+@@@+@+@+@@@..@@@@+++++@++++..+++OO+@OOOOOOO..OoooooooooOOO@..O@+@@@@@+@@@@@..@@@+@+@+@+@@++..+++OOOO",
"OOOOOOO.@###############@#######################@#######################+@######################@#######################.+++++OO",
"OOOOOO.X@###############################################################################################################$.++++OO",
"OOOOO.XO################################################################################################################+$.+++++",
"OOOO.XOO################################################################################################################++$.++++",
"+++.XOOO################################################################################################################+@+$.+++",
"++.XOOOO################################################################################################################+++@$.++",
"+.X++OOO################################################################################################################+@+++$.@",
".X+++++O###############################################################################################################@@++@++$.",
".X++++++################################################################################################################@@+@++$.",
"+.X+++++################################################################################################################+@+@+$.@",
"++.X++++################################################################################################################@@++$.++",
"+@@.X+++################################################################################################################@+@$.@@+",
"++@+.X++################################################################################################################@+$.+@+@",
"@+++@.X+################################################################################################################@$.+@+@+",
"@+@+++.X################################################################################################################$.+@+@+@",
"+@+@@+@.################################################################################################################.@@+@+@+",
"@+@+@+@.################################################################################################################.@@+@+@+",
"+@+@+@.X################################################################################################################$.@++@+@",
"@+@++.X+################################################################################################################+$.@+@@+",
"+@+@.X++################################################################################################################@@$.@@+@",
"+@@.X+@+################################################################################################################@@@$.@@+",
"@+.X@+++################################################################################################################+++@$.@@",
"@.X@+@+@################################################################################################################+@+@@$.+",
".X@+++++################################################################################################################++++@@$.",
".X@+++@+################################################################################################################+@++@@$.",
"+.X@+@++################################################################################################################++@+@$.+",
"@@.X@+@+################################################################################################################++@+$.@@",
"+@@.X+++################################################################################################################+++$.@+@",
"@@@+.X++################################################################################################################+O$.@@@+",
"+@@@@.X@################################################################################################################O$.++@@@",
"@+@+@@.X################################################################################################################$.+O+@@+",
"@@@@@++.################################################################################################################.+O+++@@",
"+@@@@@@.################################################################################################################.O+O++@+",
"@+@+@+.X################################################################################################################$.OOOO+@",
"+@@@+.X@################################################################################################################O$.OOOO+",
"@++@.X+@################################################################################################################OO$.OOOO",
"++@.X+@@################################################################################################################ooo$.OOO",
"+@.X@++@################################################################################################################oooo$.OO",
"O.X++@+@###############################################################################################################@ooooO$.O",
".XO@@+@@###############################################################################################################+oooOOO$.",
".XOO+@+@################################################################################################################++oooo$.",
"O.XOO+@+################################################################################################################O+oOo$.o",
"OO..OO+@################################################################################################################OOOO$.oo",
"OOO.XOO+################################################################################################################OOO$.ooo",
"oooo.XOO################################################################################################################oo$.oooo",
"ooooO..O################################################################################################################o$.ooooo",
"ooOOOO.X################################################################################################################$.oooooo",
"ooOOOOO.################################################################################################################.Ooooooo",
"ooooOOO.@######################################################  #######################################################.OOOOOOO",
"ooooOO..######################################################    ######################################################$.OOOOOO",
"ooooO..o#####################################################      #####################################################O$.OOOoo",
"oooo.XOo####################################################        ####################################################OO$.OOoo",
"ooO.XOoo####################################################        ####################################################OOO$.OOO",
"oo.XOOoo#####################################################      #####################################################OOOO$.Oo",
"o..+Oooo######################################################    ######################################################OOOOO$.O",
"..++OOoo######################################################    #####################################################@OOOOOO$.",
".XOOooOO######################################################    ######################################################++OOOO$.",
"O.XOoooO#####################################################      #####################################################OOOOO$.O",
"OO.XooOO#####################################################      #####################################################OOOO$.OO",
"OOO..oOO#####################################################      #####################################################OOO$.OOO",
"OOOO.XOO####################################################        ####################################################+O$.OOOO",
"OOOOO.XO####################################################        ####################################################+$.OOOOO",
"OOOOOO.X####################################################        ####################################################$.OOOOOO",
"OOOOOO+.#####################################################      #####################################################.+++OOOO",
"OOOOOOO.################################################################################################################.+++++OO",
"OOOOOO.X################################################################################################################$.++++OO",
"OOOOO.XO################################################################################################################+$.+++++",
"OOOO.XOO################################################################################################################++$.++++",
"+++.XOOO################################################################################################################+@+$.+++",
"++.XOOOO################################################################################################################+++@$.++",
"+.X++OOO################################################################################################################+@+++$.@",
".X+++++O###############################################################################################################@@++@++$.",
".X++++++@###############################################################################################################@@+@++$.",
"+.X+++++################################################################################################################+@+@+$.@",
"++.X++++################################################################################################################@@++$.++",
"@++.X+++################################################################################################################@+@$.@@+",
"++@+.X++################################################################################################################@+$.+@+@",
"+@+++.X+################################################################################################################@$.+@+@+",
"@+@+++.X################################################################################################################$.+@+@+@",
"+@+@@+@.################################################################################################################.@@+@+@+",
"+@+@@+@.################################################################################################################.@@+@+@+",
"@+@++@.X################################################################################################################$.@++@+@",
"+@+@@.X+################################################################################################################+$.@+@@+",
"@+@+.X++################################################################################################################@@$.@@+@",
"+@+.X+++################################################################################################################@@@$.@@+",
"@+.X@@++################################################################################################################+++@$.@@",
"@.X@+++@################################################################################################################+@+@@$.+",
".X@++@+@################################################################################################################++++@@$.",
".X@+@+@+################################################################################################################+@++@@$.",
"@.X@++++################################################################################################################++@+@$.+",
"+@.X@+@+################################################################################################################++@+$.@@",
"@@+.X@++################################################################################################################+++$.@+@",
"@+@+.X++################################################################################################################+O$.@@@+",
"@@@@@.X@################################################################################################################O$.++@@@",
"@+@@@+.X################################################################################################################$.+O+@@+",
"@@+@@@+.################################################################################################################.+O+++@@",
"+@@@@@+.################################################################################################################.O+O++@+",
"@+@++@.X################################################################################################################$.OOOO+@",
"@+@+@.X+################################################################################################################O$.OOOO+",
"+@+@.X@@################################################################################################################OO$.OOOO",
"@+@.X+@@################################################################################################################ooo$.OOO",
"+@.X+@+@################################################################################################################oooo$.OO",
"O.X+@+@+###############################################################################################################@ooooO$.O",
".XO++@+@###############################################################################################################+oooOOO$.",
".XOO+@+@################################################################################################################++oooo$.",
"+..OO+@+################################################################################################################O+oOo$.o",
"OO.XOO+@################################################################################################################OOOO$.oo",
"OOO.XOO+################################################################################################################OOO$.ooo",
"OOoo..+O################################################################################################################oo$.oooo",
"OOooO.XO################################################################################################################o$.ooooo",
"ooooOO.X#######################################################@###############################################@########$.oooooo",
"oooo+++.#######@###############################################+###############################################@########.Ooooooo",
"ooooooo..ooOOO@++@@@+@@..@@+@@@++@@@+++..OO++O+O@++O+O+..+OOOOoooOOOOOO..OOOOO+@@+@@+@+..++@@+@+@@+@+++..+++O+O++O+OO++..OOOOOOO",
"oooooo..$.ooOO+O@++@@@.X$.+@+@@@@@++++.X$.+OO+O+++O+O+.X$.+OOOoOoOOOOO.X$.OOOO+++@+@@@.X$.@@@@@@@@@+++.X$.+O+O+OO+O++O.X$.OOOOOO",
"ooooO..+o$.oOOOO+++++.X@@$.@@+@++@++@.X++$.++O+O+O+O+.XOO$.+OOOOooOOO..OO$.OOO+++++++.X@@$.++@@@@@+@+.X++$.+O+O++O+OO.XOO$.OOOoo",
"oooo.X++oo$.OOOOO+@+.X+@+@$.@@@@@@+@.X++++$.O+O+O+O+.XO++O$.OOOOooOO..OOOO$.OO+O++++.X+@+@$.@@+@@@++.X@+++$.+O+OO+O+.X+OOO$.OOoo",
"OOO.XOOOooo$.OOO+O+.X+@++++$.@+@@++.X+@++@+$.++O+OO.XO+OO+O$.OOOooo..OOOooo$.OOO+O+.X++++++$.@@@@+@.X@+++++$.OO++O+.X+O+OOO$.OOO",
"OO.XOOoOoooo$.OOO+.X++++@+@+$.@@@+.X@+++++++$.O+O+.XO+O+OOOO$.OOoo..ooOOoooo$.OOOO.X+@+@@++@$.+@@+.X++@+@+++$.+OO+.XO++OOOOO$.Oo",
"O..OoooooooOO$.OO.XO+O++++@+@$.+@.X+++@+@++++$.++.X++O+OOOOOO$.OO..+ooooooooO$.OO.XO++++@++++$.+@.X++++++++@+$.++.XO+O+OOOOOO$.O",
"..oooooooooOOO$..XO+++++@+++++$..X++@++++++@++$..XO+O+O+OOOOOO$..X++oooooooooO$..X+++++++++@@+$..X++@+@+@+++++$..XO+O+OOOOOOOO$."
};
