/* XPM */
static char *f67e12d7f2d944b1b6dedfcc520f0ca6csuMmuIJf2mQS5i3[] = {
/* columns rows colors chars-per-pixel */
"128 128 33 1 ",
"  c black",
". c gray29",
"X c #4B4B4B",
"o c #4E4E4E",
"O c #505050",
"+ c gray32",
"@ c gray33",
"# c gray34",
"$ c #5B5B5B",
"% c gray36",
"& c gray37",
"* c #5F5F5F",
"= c gray38",
"- c gray39",
"; c gray42",
": c #6F6F6F",
"> c gray44",
", c gray45",
"< c #747474",
"1 c #777777",
"2 c gray47",
"3 c #7C7C7C",
"4 c gray50",
"5 c #808080",
"6 c #878685",
"7 c #8D8B89",
"8 c #92908C",
"9 c #94928E",
"0 c #979490",
"q c #9B9792",
"w c #9B9893",
"e c #9C9893",
"r c #9D9994",
/* pixels */
".+,,,,,,:,,,,,q..+,,<<<<<<<2<<ro.+2<<22<2<2<<2ro.+<<<<<<,,,,,,r..+,,,,:,:,,:,,q..o,,,,<<<<2<2<r..+<2<2<22<2<2<r..+,<<<<<<<,,,,r.",
",.+,,:,:,,,:,q.,,.+,<<<<<22<2r.<2.+22<<2<2<2<r.<<.+<<<<<,,,,,ro24=+,,:,,,,,,,q.,,.+,<<<<<2<2<ro<2.+22<2<<2<22r.2<o+<<<<<,,,,,r.,",
",,.+:,,,:,,,q.,,,,.+,,<<<<<2eo<222.+2<2<<22<r.<2<2.+<<<<,,<<r.2555=+,,,,:,:,q.,,,,.+<,<<<<<2r.2222.+<2<22<2<ro<<2<.+<<<<,,,,r.,,",
",,,.+,,:,,,r.,,:<:,.+,,<222r.222222.+22<2<2ro<2<2<<o+<<<,,,r.255555=+,:,,,,q.,:,<,,.+,,<222r.222222.@22<<2<r.<<2<2<.@<<<,,,r.,,,",
",,,,.+,,,,q.,,,,,,,:.+,,<2eo22222222.+2<2<r.<2<22<2<.+<<<<r.25555555-+<,,,e.,,:,,:,:.+,,22r.22222222.+2<2<r.<2<22<2<o+<<<,r.,,,,",
",,,,,.o,,e.<,:,::,,,,.o,2r.2222222222.+22r.22<2<<2<2<o@<<r.2555555555-+<,e.,,,,,,,,,,.o,2r.2222222222.+2<ro<2<2<<2<2<.+<<r.,,,,,",
",,,,,,.+q.,,:,,,,:,:,,.+r.2<2222222222.+ro<2<2<22<2<2<.+r.255555555555-+q.,,,,:,,:,,,,.+r.<22222222222.+e.22<2<22<2<<2.+r.<<,,,,",
",,,,,,,..,,:,,,:,,,,,:,..,22<2222222222..2222<2<<2<2<2<..45555555555555-.,,:,:,,,,:,:,:..,22<2222222222.o2222<2<<2<22<<o.<<<,,,,",
",,,,,,,..<<,,,:,,:,::,,..,,<<<222222222..22222222<2<2<2.;455555555555555=<<<<,,,,,,,,:,..,,<22222222222..2224<222<2<2<<..<2<<<<,",
",,,,,,.+r.<,,,,,,,,,,,.+r.,,2222222222.@ro2222<<<2<2<<o:44555555555555555=<<,,,::,:,,,.+e.,,2<22222222.+r.42222<<2<2<<o@eo<<<2,,",
",,,,,.+,<r.<<,,,,:,,,.o,,q.,<<2<<2222.+22r.24242222<<o:5555555555555555555-<,,,,,,,:,.+,,e.,,<<222222.+22r.<2242222<2.@<<r.<<2<<",
"<,,,.+,,<<r.,,:,,,:,.+,,,,e.,,222222o+<222r.22222<22.:555555555555555555555-,,,::,,,.o,,,,r.,,22<222.+2222eo2222222<.+<2<2r.2<<<",
"<<<o+,,,<<<r.<,,,,,.+,,,,:,q.,,<2<2.+222222r.222222.,45555555555555555555555=<<<:,,.+:,:,,,q.,,<222.+222222r.222222o+<2<<2<r.<<<",
"<<.@,,,,<<<<r.,,:,.o:,,:,,,,r.,22<.+<2222222r.2242.:4455555555555555555555555=,,,,.+,,,,,:,,e.,<<2.@<2222222r.2222.+2<<22<22r.<2",
"<.+<<<<,<<<<<r.<,.+,,,,:,::,,e.,<o+2222222222r.2<o,455555555555555555555555555=<,.o,,,,,,:,:,q.,2.+<2<2222222r.22.+2222<<22<2ro<",
"o+<<<<<<<<<<<<r..+,,:,,,,,,,,,e..+22<222222222r.o,44555555555555555555555555555=.+,,,::,,,,,,,e..+222222222222r..@2222222<<2<<r.",
".+<<<<<<<<<<<<r..o,,,:,:,,:,,,q..o<2<22<222222r.,5555555555555555555555555555555-+<,,:,,,,,,,:q..+222222222222r..+2242<2222<22r.",
"<.+<<2<2<<<<<r.<,.+,,,,,:,,,,q.,,.+2222222222ro4455555555555555555555555555555555-+<,,:,:,:,,e.,,.+<2<2<<2222r.22.+222222<<2<ro<",
"2<o+2<<<<<<<r.<<,,.+,::,,:,,q.,,,,.+<<2<2<<2e.454455555555555555555555555555555555-+,,,,,,,,e.,:,,.+<22222<2r.2222.+222222<2eo<<",
"<2<.+2<2<2<r.<<<<,,.+,,,,,,q.,,::,,.@222222ro44555555555555555555555555555555555555-o,:,:,,q.,,,,,,.+22<<22r.222222.@222222r.<22",
"2<<2.+<<<2r.<2<<<<<<.+,,,,q.,:,,:,,,.+2<2<eo4455555555555555555555555555555555555555=+<<,,q.,:,:,,,:.+<222r.2<222222o+222<eo<2<2",
"222<<o@<<ro<<<<<,,,<<.+,,e.,,,:,,,,:,.+,2ro444555555555555555555555555555555555555555=+,,q.,,,,,:,,,:.+<2ro<22222222<.@<2r.<2222",
"2<2<<<.+r.<<<2<<<<<,,,.+q.,:,,,,:,:,,,.+ro44555555555555555555555555555555555555555555=+q.,:,:,,,:,:,,.+eo<22<22222222o+ro2222<2",
"222222<..2<<<<2<<<<,,<<..,,,:,:,,,,,,,,.o4445555555555555555555555555555555555555555555=.,,,,,:,,,,,,,,..<<222<22<2222<oo<2<2<22",
"2<22222..<2<<<<2<<<<,<<..,,,:,:,,:,:,,,o<55555555555555555555555555555555555555555555555=<<,,,,,,:,,,,,..,<<<22<<2<2222..<2<2<22",
"22<2<2.+r.<<<<<<<<2<<<.+q.,,,,,,,,,,:,o25555555555555555555555555555555555555555555555555-,,:,:,,,:,:,.oe.<<<222222222.+eo2222<2",
"22222.+<<r.<<<<<<<<<<.+<,r.,,,:,,:,,,o2555555555555555555555555555555555555555555555555555=,,,,:,,,,,.+,,q.,<<2<2<<2<.+22r.22222",
"<2<2.@<<<<ro<<<<<<<<.+<<<<r.,:,,,,,,o<55555555555555555555555555555555555555555555555555555=:,,,:,:,.+,,,,e.<<<<<22<.+2222r.22<2",
"2<2.+<2<<<2r.<<<<<<o+<<<<<<e.,,:,,,o25555555555555555555555555555555555555555555555555555555=,,,,:,.o,,:,:,q.<<<<2<o+<2<222r.222",
"22.+2<<22<<<r.<<<<.+<<<<<<<,q.,,,,o<555555555555555555555555555555555555555555555555555555555=,<,,.+,,,,,,,,r.<<<<.+2<<2<222r.22",
"2.+22<2<2<2<<r.<<.+<<<<<<,,,,q.,,o255555555555555555555555555555555555555555555555555555555555-<,.+,,:,:,:,,,r.<<.+<<22<2<<22r.2",
".+22<2<2<2<<<<r..+<<<<<<,,,,,,q.+25555555555555555555555555555555555555555555555555555555555555-.o:,,,,,,,:,,,r..+<<<2<2<22<22r.",
".+2<2<2<2<<2<<ro.+<<<<<<,,,,,,ro2555555555555555555555555555555555555555555555555555555555555555=+<,,:,,,,,,,:q..+,,<<<2<2<222r.",
"2.@2<2<2<22<2r.<<o+<<<<,,,,,<r+455555555555555555555555555555555555555555555555555555555555555555=+<,,:,:,:,,e.,,.+<<<<<2<2<2r.2",
"22o+2<<22<22r.<<<<.+<<<,,,,,r+45555555555555555555555555555555555555555555555555555555555555555555-+,,,,,,,,e.,:,,.+<<<<<222r.22",
"22<.@<2<<2<r.2<22<<o+<<,,,,r+4555555555555555555555555555555555555555555555555555555555555555555555-o,:,:,,e.,,,,,,.+<<<<<<r.222",
"2222o+<2<<ro<2<22<<<.+<,,,r@455555555555555555555555555555555555555555555555555555555555555555555555=+<<,,q.:,:,:,,,.o,,<<r.2222",
"2222<.@<2r.<2<2<<22<<.+<,r+45555555555555555555555555555555555555555555555555555555555555555555555555=+,,e.,,,,,,,,:,.+,<r.<2222",
"222222.+r.<2<2<22<2<<<.+r+5555555555555555555555555555555555555555555555555555555555555555555555555555=+e.:,,,:,:,:,,:.+r.<<2222",
"2222222..22<2<2<<2<2<2<o+555555555555555555555555555555555555555555555555555555555555555555555555555555=.,,,,:,,,,,,,,,..<<<<2<2",
"<222222..22<22<2<2<2<2<@45555555555555555555555555555555555555555555555555555555555555555555555555555555=<<<:,,,,:,::,,..<<<<<22",
"222222.+r.222<2<2<2<2<@4455555555555555555555555555555555555555555555555555555555555555555555555555555555-,,,,,:,,,,,,.+r.<<<,2<",
"22222.@2<ro<222<<2<2<@455555555555555555555555555555555555555555555555555555555555555555555555555555555555=,:,:,,:,,,.o,,q.<,,,2",
"2<2<.+2222e.2<222<2<@55555555555555555555555555555555555555555555555555555555555555555555555555555555555555=,,,,,,:,.+,,,,e.,,,,",
"222.+222222r.<2222<@4555555555555555555555555555555555555555555555555555555555555555555555555555555555555555=<,,,,,.+,,,,:,q.,,,",
",<.+22<22222r.<2<<$445555555555555555555555555555555555555555555555555555555555555555555555555555555555555555=,,:,.o:,,:,,,,e.:,",
",.+22<2222222ro<<$45455555555555555555555555555555555555555555555555555555555555555555555555555555555555555555-<,.+,,,,:,::,,e.,",
".+<<22<2<22222r.$4555555555555555555555555555555555555555555555555555555555555555555555555555555555555555555555-.+,,:,,,,,,,,,q.",
".+,,<<22222222q@555555555555555555555555555555555555555555555555555555555555555555555555555555555555555555555555=+<<,,:,:,,:,,q.",
",.+,,<<2<2<22r$55555555555555555555555555555555555555555555555555555555555555555555555555555555555555555555555554=+<,,,,,,,,,q.,",
",,.+,,22222<r$5555555555555555555555555555555555555555555555555555555555555555555555555555555555555555555555555555=+,,,,:,:,q.,,",
",,:.+,,2<22r&455555555555555555555555555555555555555555555555555555555555555555555555555555555555555555555555555555-+,,<,,,q.,:,",
",,,,.o,,<<r$55555555555555555555555555555555555555555555555555555555555555555555555555555555555555555555555555555555-+<<,,e.,,:,",
",:,:,.+,<r&5555555555555555555555555555555555555555555555555555555555555555555555555555555555555555555555555555555555-+<,e.:,,,,",
":,,,,,.+e$555555555555555555555555555555555555555555555555555555555555555555555555555555555555555555555555555555555555-+q.,,,,:,",
",,,:,:,.=55555555555555555555555555555555555555555555555555555555555555555555555555555555555555555555555555555555555555-.,,:,:,,",
":,:,,,:&5555555555555555555555555555555555555555555555555555555  5555555555555555555555555555555555555555555555555555555=<<<<,,,",
",,,,,,&4555555555555555555555555555555555555555555555555555555    5555555555555555555555555555555555555555555555555555555=<<,,,:",
",,:,,&5555555555555555555555555555555555555555555555555555555      5555555555555555555555555555555555555555555555555555555-<,,,,",
",:,,=5555555555555555555555555555555555555555555555555555555        5555555555555555555555555555555555555555555555555555555-,,,:",
":,,=55555555555555555555555555555555555555555555555555555555        55555555555555555555555555555555555555555555555555555555=<<<",
",,=5555555555555555555555555555555555555555555555555555555555      5555555555555555555555555555555555555555555555555555555555=,,",
":=555555555555555555555555555555555555555555555555555555555555    555555555555555555555555555555555555555555555555555555555555=,",
".;555555555555555555555555555555555555555555555555555555555555    5555555555555555555555555555555555555555555555555555555555547.",
".+455555555555555555555555555555555555555555555555555555555555    555555555555555555555555555555555555555555555555555555555552r.",
",.+2555555555555555555555555555555555555555555555555555555555      5555555555555555555555555555555555555555555555555555555554e.<",
",,.@445555555555555555555555555555555555555555555555555555555      555555555555555555555555555555555555555555555555555555552e.,,",
",,<.@25555555555555555555555555555555555555555555555555555555      55555555555555555555555555555555555555555555555555555554q.,,,",
",,,,.@455555555555555555555555555555555555555555555555555555        555555555555555555555555555555555555555555555555555544e.,,,,",
",,,,,.+25555555555555555555555555555555555555555555555555555        55555555555555555555555555555555555555555555555555542e.,,,,,",
",,,,,,.@6455555555555555555555555555555555555555555555555555        555555555555555555555555555555555555555555555555555:r.<<,,,,",
",,,,,,<..4555555555555555555555555555555555555555555555555555      5555555555555555555555555555555555555555555555555554..<<<,,,,",
",,,,,,,..<5555555555555555555555555555555555555555555555555555555555555555555555555555555555555555555555555555555555442..<2<<<<,",
",,,,,,.+r.<45555555555555555555555555555555555555555555555555555555555555555555555555555555555555555555555555555555442.@eo<<<2,,",
",,,,,.+,<ro<45555555555555555555555555555555555555555555555555555555555555555555555555555555555555555555555555555554<.@<<r.<<2<<",
"<,,,.+,,<,e.<555555555555555555555555555555555555555555555555555555555555555555555555555555555555555555555555555555<.+<2<2r.2<<<",
"<<<.+,,,<<<ro<45555555555555555555555555555555555555555555555555555555555555555555555555555555555555555555555555542.+<2<<2<r.<<<",
"2<.@,,,,<<<<e.<455555555555555555555555555555555555555555555555555555555555555555555555555555555555555555555554442.+2<<22<22r.<2",
"<.+<<<,,<<<<,r.,4555555555555555555555555555555555555555555555555555555555555555555555555555555555555555555555542.+2222<<22<2ro<",
".+2<<<<,<<<<<<q.+4555555555555555555555555555555555555555555555555555555555555555555555555555555555555555555556oo@2222222<<2<<r.",
".+<<<<<<<<<<<<ro.$45555555555555555555555555555555555555555555555555555555555555555555555555555555555555555544r..+<242<2222<22r.",
"<o@<2<2<<<<<<r.,,.$555555555555555555555555555555555555555555555555555555555555555555555555555555555555555544w.2<o@222222<<2<ro<",
"2<.+<<<22<2<r.,<<<.&5555555555555555555555555555555555555555555555555555555555555555555555555555555555555554q.2222.+222222<2eo<<",
"<2<.+2<<<<<r.<<<,,,.$55555555555555555555555555555555555555555555555555555555555555555555555555555555555554w.222222.@222222r.<22",
"2<<2.+<<<,r.<2,,<<<<.&555555555555555555555555555555555555555555555555555555555555555555555555555555555554q.2<222222o+222<eo<2<2",
"222<<.@<<eo<<<<,<<,<<.&5555555555555555555555555555555555555555555555555555555555555555555555555555555554q.<22222222<.@<2r.<2222",
"22222<.+ro2<2<<<<<,,,,.&55555555555555555555555555555555555555555555555555555555555555555555555555555552r.222<22222222o+ro2222<2",
"2<2<2<2..<<<<<<2<<,,,<<.$555555555555555555555555555555555555555555555555555555555555555555555555555554o.<2<22<22<2222<oo<2<2<22",
"22222<2..<<<2<<<<<<<<<<..25555555555555555555555555555555555555555555555555555555555555555555555555554,..,<<<22<<2<2222..<2<2<22",
"2<2<22.@eo<,<<<<<<2<<<.+r.255555555555555555555555555555555555555555555555555555555555555555555555544,.+e.<<<222222222.+eo2222<2",
"<2222.@<,r.,<<<<<<<<<.+<<ro<555555555555555555555555555555555555555555555555555555555555555555555554,.+,,q.,<<2<2<<2<.+22r.22222",
"222<.+<<<<ro<<<<<<<<o+,<<<r.25555555555555555555555555555555555555555555555555555555555555555555554,.O,,,,e.<<<<<22<.+2222r.22<2",
"<2<.@<2<<<<ro<<<<<<.+<<<<<<r.255555555555555555555555555555555555555555555555555555555555555555544,.+,>,,:,q.<<<<2<o+<2<222r.222",
"22.+2<<222<<e.<<<<.+<<<<<<<,r.2555555555555555555555555555555555555555555555555555555555555555554,.O,,>,,,,,r.<<<<.+2<<2<222r.22",
"<o+2<2<2<2<2<r.<<.+<<<<<<,,,,e.25555555555555555555555555555555555555555555555555555555555555554,.+,,>,,,:,,,r.<<.+<<22<2<<22r.2",
".@2<2<2<2<<2<<r..+<<<<<<,,,,,,e.;55555555555555555555555555555555555555555555555555555555555555@.+,>,,,>,,:,,,r..+<<<2<2<22<22r.",
".+2<2<2<2<2<2<e..+<<<<<<,,,,,,r..;445555555555555555555555555555555555555555555555555555555544q..+,,,,>,,,,,,:q..+,,<<<2<2<222r.",
"2.@2<2<2<2<22ro<,.+<<<<,,,,,,r.,,.;45555555555555555555555555555555555555555555555555555555540.,,.+,>,>,:,:,,e.,,.+<<<<<2<2<2r.2",
"22.+2<2<2<2<e.2<2<.+<<<,,,,,r.,,,,.,544555555555555555555555555555555555555555555555555555540.,,,,.+,>,,,,,,e.,:,,.+<<<<<222r.22",
"222.@2<2<2<r.<<2<<<.+<<,,,,r.,,,,,,.,4555555555555555555555555555555555555555555555555555550.<,,,,,.+,,>:,,q.,,,,,,.+<<<<<<r.222",
"2222o+,22<r.<2<22<<<o+<<,,r.,,,,,,,,.,54555555555555555555555555555555555555555555555555540.,,,,,,,,.+,>,,q.,,,,:,,,.o,,<<r.2222",
"2222<o+2<r.22<2<<22<<.+<,r.,,,,,,,,,,.,455555555555555555555555555555555555555555555555550.<,,,,,,,,,.+,,e.,,:,:,,,:,.+,<r.<2222",
"222222.+r.<2<2<22<2<<<o+r.,,,,,,,,,,,,o,5555555555555555555555555555555555555555555555440.,,,,,,,,,,,,.+q.,,:,,,:,:,,:.+r.<<2222",
"22222<2..22<2<2<<2<22<<..,,,,,,,,,,,,,,o,5555555555555555555555555555555555555555555555@.,,,,,,,,,,,,,,..,,:,,,:,,,,,,,..<<<<2<2",
"2222222..22<<2<2<2<2<2<..<2,,,,,,,,,,,,..4545555555555555555555555555555555555555555552..<<<<,,,,,,,,,<..<,,,,:,,:,::,,..<<<<<22",
"2<2222.+r.222<2<2<2<2<.@r.<<,,,,,,,,,,.@q.44555555555555555555555555555555555555555552.+r.<2,,,,,,,,,,.+r.,,,:,,,,,,,,.+r.<<<,2<",
"22222.+22e.2222<<2<2<o@<<ro<<<,,,,,,,.+,<r+455555555555555555555555555555555555555552.+<2ro<<<<<,,,,,.+<<r.>,,,,,:,,,.o,,q.<,,,2",
"2<22.+2222e.2<222<2<.+<22<e.<<<,,,,<.+,,<<r.4555555555555555555555555555555555555552.@<2<<e.<<<<,,,,.+<<<,w.,:,:,,:,.+,,,,e.,,,,",
"<2<.+222222r.22222<.+<2<<2<ro<<<<,,.@<<<<,,ro55555555555555555555555555555555555552.+<2<2<2r.<<<,,<.+<<<<,,r.,,,,,,.+,,,,:,q.,,,",
",2.+<2222222e.<22<.@2<<22<22e.<2<<.@,<<<<,,,q+455555555555555555555555555555555552.@<2<2<2<2ro<<<<.+<<<<<,,,w.,,:,.o:,,:,,,,e.:,",
",.+22<2<22222r.22.+2<2<2<22<2r.<,.@<,,<<<,,,,eo4555555555555555555555555555555444.+<2<2<2<2<<r.<<.+<,<<<<,,,,r.,,.+,,,,:,::,,e.,",
".+,<2222<22222r..+2<222<2<<2<,eo.@<<,,<<,,,,,,r+2555555555555555555555555555554$.+2222<2<2<2<2r..+<<,<<<,,,,,,r..+,,:,,,,,,,,,q.",
".+,:2222222222r..+2<22<2<<<2<<r.o+,<<<<<,,,,,,r.@255555555555555555555555555559.o+<2<22<2<2<<2ro.+<<<<<<,,,,,,r..+,,,,,:,,:,,,q.",
",.+,<2<22<222r.22.+22<22222<2r.2<.@,2<<<,,,,,r.<<+4555555555555555555555555559.2<o+222222<<2<r.<<.@<<<<<,,,,,r.,,.+,,,,,:,,,,q.,",
":,.+<<<<<22<r.2222.+22222222eo<22<.+<,,<<<,,r.,,,,@45555555555555555555555559.2222.+<<2<2222e.<22<o+<<<<<<,,r.,,,<.+,,,,,:,,q.,,",
":,,.+,,,222e.222222.+2<2<2<r.<2<<2<.@,<<<<,r.,,,,,,@455555555555555555555559.<2222<o@2222<2ro<2<<2<.@<<<<<,r.,,,<,,.o,,,,,,q.,,:",
",,,:.+,:,2e.22222222.+2<22eo<2<2<2<2.+<,<<ro,,,<,<<<@5555555555555555555559.22222222.+<2<2e.<2<22<2<.+<<<<r.<,,<<<<<.+<,,,q.,:,,",
",,,,,.+,,r.2<2<222222.@<<r.22<2<2<2<<.@<<r.<,,<<<<<<<@55555555555555555558.22<<222222.@22ro<222<<2<2<o+<<r.<<<<<<<<<<.+<,e.,,,:,",
",,:,,,.+e.,22222222222.+r.2<2222<2<22,.+ro,<,<<<<<<<<<$555555555555555558.<22222<22222.+r.<2<2222<2<<<.+r.<<<<<<<<<<<<.+q.,:,,,,",
",,:,,,,..,<,<<2<2222222..222<222222<2<<..<,,<<<<<<<<,,,@555555555555555&.,<,<2<22222222..222222222<22<<..<<<<<<<<<<<<<<..,,,:,:,",
",:,,::,..,,,,,222222222..22<22222222<<,..<<<<<<<<<<<<<<.$55555555555552..,,,,,<2<222222..2<222222222<<<o.<<<<<<<<<<<<<<..<<,,,:,",
",,:,,,.+e.,,,,,2<2<222.+r.2222222222<2.@r.<<<<<<<<<<<<.@q&555555555552.+e.,,,,<222<222.@r.2222222222<2.+ro<<<<<<<<<<<<.+r.<<,,,,",
"::,,,.+,:q.,,,,<<2<2<.+22e.2222222<22.+,<r.<<<<<<<<<,.+<<r&5555555552.o,,q.,,,<<<22<2.+22r.22222222<<.+<<r.<<<<<<<<<<.+<<r.<,,:,",
",,,,.+,,,,q.,,,<<<2<.@2222r.22222<2<.+<2<2r.<<<<<<<<.@,,<,r&55555552.+,,,,q.,,<<<<<<.+<222r.22222<<2o@<<<<r.<<<<<<<<.+<<<<r.,,,,",
",,,.o:,,,,,q.,,,<<<.@<2<<2<r.22222<.@<2<2<<r.<<<<,,.+<<<<<<r=555552.+,,:,:,q.<,,<<<.+2<2<2<r.2222<<.+2<2<2<r.<<<<<<.+<<<<<<e.,,,",
"::.+,,,,:,,,e.,,<<.+<2<22<22r.222<.+<2<2<22<r.<<<,.@<,<<<<,,q=5552.+,:,,,,,,e.,,<<.+<<2<2<<2r.222<o@<<2<2<2<r.<<<<.+<<<<<<,,q.,,",
",.+,,,,::,,,,e.,,.+<<<<2<22<2r.22.@<2<2<2<2<<r.<<.@,<<<<<,,,,e-5<.+,,,:,:,,,,q.,,.@<<<<22<2<2r.22o+<<2<2<2<2<r.<<.+<<<<<<,,,,e.,",
".+,,::,,,,:,,,e..+<<<<<<2<<2<<r..@<2<2<2<2<2<2r..@<<<<<<<,,,,,r..+,,:,,,,,:,,,q..+<<<<<2<2<2<<r..+2<2<2<2<2<2<r..+<<<<<<<,,,,,q."
};
