/* XPM */
static char *_10c03f9c9a14d0295c2b9dad433fbbcYjgrykM5Lt2wNDFu[] = {
/* columns rows colors chars-per-pixel */
"128 128 9 1 ",
"  c black",
". c gray29",
"X c gray32",
"o c #727272",
"O c gray45",
"+ c gray46",
"@ c #797979",
"# c #808080",
"$ c #9D9994",
/* pixels */
".XOOOOOOoooooo$...OO+O+O+++@++$..X++++++@+@+@+$..X++++O+OOOOOO$..XOOOOOooooooo$..XOOOO+O+++@++$..X+++++@+++++@$..X++O+O+OOOOOO$.",
"O.XOOOoOooooo$.oo.XOO+O++++++$.@@.X@@++@+++++$.++.X++++OOOOOO$.OO.XOOOOoooooo$.oO.XOOOO++++++$.+@.X@@+++@+@++$.++.X++O+OOOOOO$.O",
"OO.XooooooOO$.ooOO.XOOO++O++$.+@@@.X+++++@@+$.@+++.X+OO+OOOO$.OOOO.XOOOOoooo$.ooOO..+OO+++++$.+@@+.X+@+@+++@$.+++@.X+++OOOOO$.OO",
"OOO..oooooO$.oooOOO.XOO+@@@$.@+@+@@.X@@++++$.+++@++.X++OOOO$.OOOOOO..ooOooo$.oooOOO.XOO++@@$.@@@@@@.X+@+@++$.+@++++.X+O+OOO$.OOO",
"OOOO.XOOoo$.ooooOOoo..OO@+$.@@@@+@@@.X+@@+$.++@++@+@.X++OO$.OOOOOOOO.XOOOO$.oooooooo.XOO@@$.+@@++@+@.X+@++$.+++++@++.X++OO$.OOOO",
"OOOOO.XOO$.OooooOOooO.XO+$.@@+@+@@@+@.X+@$.+@++++++++.X++$.OOOOOOOOOO.XOO$.OooooooooO..O+$.@@@@@@@@@@.X+@$.+@+@+++@++.X++$.OOOOO",
"OOOOOO.X$.ooooooOoooOO..$.+@+@@@+@+@@@.X$.+@+++++@+++@.X$.OOOOOOOOOOOO.X$.ooooooooOOOO.X$.+@++@+@@+@+@.X$.+@+++@++++@+.X$.OOOOOO",
"OOOOOOO..OooooooOoooOOO..O@+@@@+@@@@@+@..@@@@++@++@++++..+++OOOOOOOOOOO..OoooooooOOOOOO..O@+@@@@@+@@@@@..@@@@+++@+@+++@..+++OOOO",
"OOOOOOO..OOOOOoooOOOOOO..OOO++@@@+@+@@@..@@@@+@++++@+@+..++++++OOOOOOOO..OOOOOOOooooooO..OO+@+@@@@@@@+@..@@@@+@++@+@++@..++++++O",
"OOOOOO.X$.+OOOoooOOOOO.X$.OO+@@+@@@@+@.X$.@@@@@+@+++++.X$.++++OOOOOOOO.X$.OOOOOOOOoooo.X$.OO+@++@+@+@@.X$.@@@@+@++++@+.X$.++++OO",
"OOOOO.XOO$.OOOOOooOOO..OO$.OO++@@++@@.X++$.@@@@@+@+@@.X++$.+++++OOOOO.XOO$.OOOooOOOOo..+O$.OO++@@+@@+.X@+$.@@@@@@++++.X++$.+++++",
"OOOO.XOO++$.OOOOooOO..OOOO$.OO@++@@@.X@@@@$.@@@@@+@+.X++@+$.+++++OOO.XOOOO$.OOooOOOO..++OO$.OO@++@@+.X@@@@$.@@@@@@@+.X++++$.++++",
"+++.XOOOO+O$.+OOooo..OOOooo$.OO++@+.X@@@@@@$.@@@@@+.X++@++@$.++++++.XOOOO+O$.OOOOOO..oooOoo$.ooO@+@.X@@+@@+$.@@@@@+.X++@@+@$.+++",
"++.XOOOO+O+O$.OOoo..ooOOoooo$.O+@+.X@+@++@@+$.@@@@.X@@++@+++$.++++.XOOOO+O++$.OOOO..OoooOOoo$.oO+@.X@+@@@+@@$.@@@@.X@+++++++$.++",
"+.X++OOOO+O+O$.+O..+ooooooOOO$.O@.X@+@@@+@@@+$.@@.X@++@++++++$.++.X++OOOO+OOO$.OO..OOOooooooo$.o@.X++@@+@@@@@$.@@.X@+@@++++++$.+",
".X+++++O+O+O+O$..X++ooooooOOOO$..X++@++@@@@+@@$..X@@@@+@@++@+@$..X+++++O+OOOOO$..XOOOOoooooooo$..X+@@++@@+@+@+$..X@@@@+@+@@++@$.",
".X++++++OOO+O+$..XOOOOOooooooo$...++@++@+@@+@@$..X@@@@+@+@++@+$..X++++++O+O+O+$..XOOOOOOoooooo$..X+@@+@+@@@+@@$..X@@@@@@+@++++$.",
"+.X++++++++O+$.OO..OOOOoooooo$.oO.X@+@@+@+@@@$.+@.X+@@@+@+@@+$.++.X++++++++OO$.OO.XOOOooooooo$.oO.X++@+@++@@@$.+@.X+@@@+@+@+@$.+",
"++.X++++++++$.O+++.XOOOOoooo$.ooOO..@@+@@++@$.@@@+.X@@@@+@@+$.+++@.X++++++++$.O++O.Xoooooooo$.ooOO.X@+@+@++@$.@@+@.X+@@@++@@$.+@",
"+@@.X++++++$.O+OO++..OOOooo$.oooOOO.X+@++@+$.+@+@@@.X@@@@++$.@@++++.X++++++$.++OO++..oooooo$.oooOOO.X@+@+@@$.+@+@@@.X@@@@@+$.+@+",
"++@+.X++++$.++OO+OO+.XOOoo$.oooooooo.X@+@+$.@+@@@@@+.X@@@+$.+@+@+++@.X@+++$.++OOO+O+.XOOoo$.oOOOOOoo..@+@@$.@+@@@@@+.X+@@+$.@+@+",
"@+++@.X++$.++++OOOO+O.XOo$.oooooooooO.X+@$.++@+@+@@@@.X+@$.@@+@+@@+++.X++$.+++++OOOOO.XOo$.ooOOOOOooO.X++$.++@+@@+@@@.X@@$.@+@+@",
"@+@+++.X$.+++++++OOOOO.X$.ooooooooOOOO.X$.+@@+@+@@@++@.X$.+@+@+@+@+++@.X$.+++++++OOOOO.X$.oooo+OooooOO.X$.@+@+@+@+@+@@.X$.@+@+@+",
"+@+@@++..+++++++++OOO+O..oooooooooOOOOO..+@++@+@++@@@@@..+@+@+@+@+@+@++..++++++@++OOOOO..ooooo++ooooOOO..++@+@+@+@@@@+@..++@+@+@",
"@+@+@+@..+++++++++++O++.+@######################################@###############@###############+@######.OOOO+@++@+@@@@..@+@+@+@",
"+@+@+@.X$.+++O+O+O+++O.X################################################################################$.OO+++@@+@@++.X$.@@@+@+",
"@+@++.X++$.+O+O+O+O++.XO################################################################################o$.O+++++++++.X@@$.@@++@",
"+@+@.X++++$.+O+O+O+O.X+O################################################################################oO$.++++@++@.X+@@+$.@@@+",
"+@@.X+@++++$.OO+O+O.X+O+################################################################################ooo$.++O+++.X+++@@@$.+@@",
"@+.X@+++++++$.+O+O.XO++O################################################################################oooo$.O+O+.X@++@++@+$.@+",
"@.X@+@+@@++++$.+O.X++O++################################################################################ooOOO$.O+.X+++++++@@+$.@",
".X@+++++++++++$..X+OO++@################################################################################oOOOOO$..X++++@+@+++@@$.",
".X@+++@+@+++++$..X+O+O+O################################################################################oooooo$...OOO+++++@+@+$.",
"+.X@+@++++@+@$.++.X+O+OO################################################################################ooooo$.oo.X++O+++@++@$.@",
"@@.X@+@+@+@+$.++++.X++OO################################################################################oooo$.ooOO.XO++O++++$.@@",
"+@@.X++++++$.@+++++.XO+O################################################################################ooo$.oooOOO.X+O+++@$.@@+",
"@@@+.X++@+$.+@++++++.X++################################################################################oo$.ooooOOoo..++O+$.@@+@",
"+@@@@.X@+$.+++@++@@++.X+################################################################################O$.oooooOOooO.XO+$.O+@@@",
"@+@+@@.X$.++++++++++++.X################################################################################$.ooooooooooOO..$.O+@++@",
"@@@@@++..@@+@+@++@+@+++.################################################################################.OooooooooooOOO..O+O+@+@",
"+@@@@@@..++@++++@++++++.################################################################################.@+OoooooOOOOOO..+O+O++@",
"@+@+@+.X$.@++@+@+++@+@.X################################################################################$.OOoooooOOOOO.X$.OO+O@+",
"+@@@+.X@@$.@+@@++++++.X+################################################################################O$.OooOOooOOO..OO$.OOOO+",
"@++@.X+@+@$.@+@+@+@+.X+@################################################################################OO$.ooOOooOO..OOOO$.OOOO",
"++@.X+@@@@@$.+@++@+.X+@+################################################################################OOO$.OOOooo..OOOooo$.OOO",
"O@.X@++@+@+@$.+@@+.X@+++################################################################################+OOO$.OOoo..ooOOoooo$.OO",
"O.X++@+@@@+@+$.@@.X@++@+################################################################################OOOOO$.OO..+ooooooooO$.O",
".XO@@+@+@+@@@@$..X++@@+@################################################################################OOOOOO$..X++oooooooooO$.",
".XOO+@+@@+@+@@$..X+@+@+@################################################################################OOOOOO$..XOOOOOOOOoooo$.",
"O.XOO+@++@+@@$.@@.X@@+@+################################################################################OOOOO$.OO.XOOOOOoOooo$.o",
"OO..OO+@@+@+$.@@+@.X+@+@################################################################################+OOO$.OOO+.X++OOoooo$.oo",
"OOO.XOO++@+$.+@+@@+.X+@+################################################################################++O$.OOOOO+..OOOooo$.ooo",
"oooo.XOO++$.@+@+@@@@.X@+################################################################################OO$.OOOO+O+O.XOOoo$.oooo",
"ooooO..OO$.@+@+@+@+@@.X@################################################################################+$.++OO+O+O++.X+o$.ooooo",
"ooOOOO.X$.++@+@+@@@+@@.X###############################################################################@$.+OO+O++O+OO+.X$.oooooo",
"ooOOOOO..O+O+@+@@+@@+@+.###############################################################################@.+O++O+OO+O++OO..Ooooooo",
"ooooOOO..OOOOOO++@@+@+@.@######################################  #######################################.+++O+O++O+OO++..OOOOOOO",
"ooooOO..$.OOOO+@@++@@@.X######################################    ######################################$.+O+O+OO+O++O.X$.OOOOOO",
"ooooO..oO$.OOOOO+++@+.X@#####################################      #####################################+$.+O+O++O+OO.XOO$.OOOoo",
"oooo.XOoOO$.OOOO++++.X+@####################################        ####################################++$.+O+OO+O+.X+OOO$.OOoo",
"ooO.XOooOOo$.ooO+O+.X+++####################################        ####################################+++$.OO++O+.X+O+OOO$.OOO",
"oo.XOOoooooo$.ooO+.X++@+#####################################      #####################################@+++$.+OO+.XO++OOOOO$.Oo",
"o..+Ooooooooo$.oO.XO+O++######################################    ######################################+++@+$.++.XO+O+OOOOOO$.O",
"..++OOoooooooo$..XO+++++######################################    ######################################@+++++$..XO+O+OOOOOOOO$.",
".XOOooOOoooooo$..XOO+O+O######################################    ######################################++@+@+$..X+++O+OOOOOOO$.",
"O.XOooOOooooo$.oO.XOO+O+#####################################      #####################################+@+++$.@+.X+O+O+OOOOO$.O",
"OO.XooOOoooo$.ooOO.X+O+O#####################################      #####################################++++$.@+@+.X+O++OOOO$.OO",
"OOO..oOOooo$.oooOOO.XOO+#####################################      #####################################+@+$.++++++.X+++OOO$.OOO",
"OOOO.XOOoo$.ooooOOOO.XOO####################################        ####################################++$.@+@+++@+.X+++O$.OOOO",
"OOOOO..+o$.OooooOOooO..+####################################        ####################################@$.@+++++@+++.X++$.OOOOO",
"OOOOOO..$.OOooooooooOO.X####################################        ####################################$.+@++@+++++++.X$.OOOOOO",
"OOOOO++..OoOoooooooo+++.#####################################      #####################################.@@@+@+++@+@@++..+++OOOO",
"OOOOOOO..O+OOOooooooooo.################################################################################.@@@@+@+++++@++..+++++OO",
"OOOOOO.X$.O+OOoooooooo..################################################################################$.@@@@+@+@+@++.X$.++++OO",
"OOOOO.XO+$.OOOOOooooO..+################################################################################@$.@@@@@@@+++.X@+$.+++++",
"OOOO.XOOO+$.OOOOoooo.X++################################################################################@@$.@@@@@+@+.X++++$.++++",
"+++.XOOO+O+$.+OOOOO.XOOO################################################################################@@@$.+@@@@@.X++++@+$.+++",
"++.XOOOOO+O+$.OOOO.XOOoO################################################################################@@@@$.@@@@.X@++@+++@$.++",
"+.X++OOO+O+OO$.OO..Ooooo################################################################################@+@+@$.++.X@+@@++@+++$.@",
".X+++++OO+O+O+$...oooooo################################################################################@@@@@@$..X@@@@++@++@++$.",
".X++++++++O+OO$..XOOOOOo+###############################################################################@@@+@@$..X@@@@++@+++@+$.",
"+.X++++++++O+$.+O.XOOOOO@###############################################################################++@@@$.+@.X@@@@@+@+@+$.+",
"++.X++++++++$.O++O.XOOOO################################################################################@++@$.@@@@.X@@@@@@++$.@+",
"@++.X++++++$.O+OO+O..OOO################################################################################+@@$.+@++@+.X@@@@+@$.+@+",
"++@+.X++++$.++OOOO++.XOO################################################################################@@$.@+@@@@@@.X@+@+$.@+@+",
"+@+++.X++$.++++OOOOOO.XO################################################################################+$.++@+@+@@++.X@@$.@+@+@",
"@+@+++.X$.+++++++OOOOO.X################################################################################$.@+@+@+@@+@@+.X$.@+@+@+",
"+@+@@+@..+++++++++OOOO+.###############################################################################@.++@+@+@+@@@@@@..@+@+@+@",
"@+@++@@..+++++++++++O+O.################################################################################.OOOO+@++@+@@+@..+@+@+@+",
"+@+@@+.X$.+O+OO+O++++O.X################################################################################$.OO+++@@+@+@@.X$.@@+@+@",
"@+@++.X++$.++O+O+O+O+.X+################################################################################o$.O+++++++@+.X@@$.+@+@+",
"+@+@.X++++$.O+O+O+O+.X+O################################################################################oO$.+++++@++.X+@@@$.@@+@",
"@+@.X+@++++$.+O+O+O.XO++################################################################################ooo$.OO++++.X+++@@+$.@+@",
"+@.X@+++++++$.+O+O.X++++################################################################################oooo$.+O+O.X+@@+++@@$.+@",
"@.X@+++@+@+++$.O+.X+O+++################################################################################OoOOO$.++.X+++@++++@@$.@",
".X@+@+++++++++$..XOO+O+@################################################################################OOOOOO$..X+++++++@@++@$.",
".X@++++@++@+@+$..X+++O++@@##############################################################################oooooo$...OOO+++++@+@+$.",
"+.X@@++++@+++$.++.XOO+OO################################################################################ooooo$.oo.X++O+++@++@$.@",
"@+.X@@+@++++$.++++.X+OOO################################################################################oooo$.ooOO.XO++O++++$.@@",
"@@@.X++++@+$.+@++++.XO+O################################################################################ooo$.oooOOO.X+O+++@$.@@+",
"@@@@.X++++$.@+@+++++.X+O################################################################################oo$.ooooOOoo..++O+$.@@+@",
"@+@+@.X@+$.@+++++@+++.X+################################################################################O$.oooooOOooO.XO+$.O+@@@",
"+@@@@+.X$.@+++@+++++++.X#######################################################################@########$.ooooooooooOO..$.O+@++@",
"@@@+@@+..@+++@+++@+@@++.###############@######################@@###############################@########.OooooooooooOOO..O+O+@+@",
"+@@+@@+..@+@+++++++++++..@+++OOOOOOOOOO..Ooooooo+OOOOOO..O++OO+@@@+@@@@..+@++@++@@++@+@..+++OOOO+OOOOOO..+OOoooooOOOOOO..+O+O++@",
"@+@@@+.X$.@+@++@@+@++@.X$.++OOOOOOOOOO.X$.oooooo++OOOO..$.O+OO@+@+@@@+.X$.+@@++@+@+@++.X$.++OOOO++OOOO.X$.OOoooooOOOOO.X$.OO+O@+",
"@++@@.X@+$.++@@++++@@.X+@$.++OOOOOOOO.X+O$.oooooooOOO..oO$.+OOOO+@+@@.X+@$.@+@++++@+@.X++$.++OOOOOOOO.XOO$.OoooOooOOO..OO$.OOOO+",
"+@+@.X@+@@$.@+@+@+++.X+@@+$.+++OOOOO.X+OOO$.ooOOoooo.XOoOO$.OOOo@+@+.X@@+@$.@+@+@+++.X++@+$.+++OOOOO.X++OO$.oooOooOO..OOOO$.OOOO",
"@++.X@@@@@@$.++@@++.X+@+@+@$.+++OOO.XO+OOOO$.OOOooO.XOooOOo$.ooo@++.X+@@+@@$.@@+@++.X+@+++@$.+++OOO.X++OOOO$.OOOooo..OOOooo$.OOO",
"O@.X@++@@+@@$.@++@.X++++++++$.++++.XO+O+OOOO$.OOoo.XOOooOOoo$.ooO@.X+@@+@@@+$.+@+@.X+++++@++$.++++.XOOO+OOOO$.OOoo..ooOOoooo$.OO",
"O.X++@+@@+@+@$.@+.X@@+@++++++$.++.XOO++OOOOOO$.Oo..+OOOoooooo$.oO.X@+@+@+@@++$.+@.X@@+@++++++$.++.XOOO+O+OOOO$.OO..+ooooooooO$.O",
".XO+@+@++@@@@+$..X@++@+++@@+++$..X++OOOOOOOOOO$...++OOoooooooo$..X++@+@+@+@@@@$..X+@+@+++@+@++$..X++O+O+OOOOOO$..X++oooooooooO$.",
".XOO+@+@@+@++@$..X@+@+@++@+@++$..X++++O+OOOOOO$..XOOooOOoooooo$..XOO++@+@++@@@$..X@@+@@+++@+++$..X++++O+OOOOOO$..XOOOOOOOOoooo$.",
"O..OO+@++@+@@$.@@.X@+@+@@++++$.@+.X++++OOOOOO$.OO.X+OoOOooooo$.oO..OO++@+@@++$.@+.X+@++@@++++$.@+.X++O+OOOOOO$.OO.XOOOOOoOooo$.o",
"OO.XOO+@@+@+$.+@@@.X@++@+@++$.++++.X++O++OOO$.OOOO.XOOOOoooo$.ooOO.XOO@+@+@@$.@+@@.X++@++@@+$.++++.X+OO++OOO$.OOO+.X++OOoooo$.oo",
"OOO.XOO++@+$.@@@+@+.X+@+@+@$.+@+@++.X++OO+O$.OOOO++..OOOooo$.oooOO+.XOO++@+$.+@@@+@.X@+@@+@$.@+@+@+.X++O++O$.OOOOO+..OOOooo$.ooo",
"OOoo..OO++$.+@+@@@@@.X+@@+$.@+++@+++.XO++O$.OOO++O+O.X+Ooo$.ooooOOoo..OO++$.@+@@@@@@.X@++@$.@+++++++.X++OO$.OOOO+O+O.XOOoo$.oooo",
"OOooO.XO+$.@@+@++@+@@.X@+$.@+@+@+++@+.X++$.++OO+O+O+O.XOo$.oooooOOooO.XO+$.@+@@++@+@+.X@+$.++@@++@+@+.X++$.++OO+O+O++.X+o$.ooooo",
"ooooOO.X$.+++@@+@@@@+@.X$.@+@+@+@++@++.X$.+O+O+O+O+OO+..$.ooooooooooOO..$.+++@+@+@@@@@.X$.+@@@++++++++.X$.+OO+O++O+OO+.X$.oooooo",
"ooooOOO..O++O@+@+@+@@@+..@+@+@@@+@+++++..OO+O+O+O+O+O++..OooooooooooOOO..OO+++@+@@+@+@@..@@++@@@@@+@++O..+O++O+OO+O++OO..Ooooooo",
"ooooooo..ooOOO@++@@@+@@..++@++@@+@@@+++..OO++O+O+O+O+O+..+OOOOoooOOOOOO..OoOOOO+@+@@+@+..@@++@@@@+@++++..+++O+O++O+OO++..OOOOOOO",
"oooooo..$.ooOO+O@++@@@.X$.@@@@+@@@++++.X$.+OO+O+O+O+O+.X$.+OOOoOoOOOOO.X$.OOOO+++@+@@@.X$.+@@@+@@@@++@.X$.+O+O+OO+O++O.X$.OOOOOO",
"ooooO..+o$.oOOOO+++++.X@@$.+@@@@+@++@.X++$.++O+O+O+O+.XOO$.+OOOOooOOO..OO$.OOO+++++++.X@+$.@@@@+@@+++.X++$.+O+O++O+OO.XOO$.OOOoo",
"oooo.X++oo$.OOOOO+@+.X+@@@$.+@+@@@+@.X++++$.O+O+O+O+.XO++O$.OOOOooOO..OOOO$.OO++++++.X+@@@$.@+@@++@+.X++++$.+O+OO+O+.X+OOO$.OOoo",
"OOO.XOOOooo$.OOO+O+.X+@++@+$.@@@@++.X+@++@+$.++O+OO.XO+OO+O$.OOOooo..OOOooo$.OOO+O+.X+@++@+$.@@+@@+.X++@+++$.OO++O+.X+O+OOO$.OOO",
"OO.XOOoOoooo$.OOO+.X+++++++@$.@+@+.X@+++++++$.O+O+.XO+O+OOOO$.OOoo..ooOOoooo$.OOOO.X@+++++++$.@@++.X@+++@+++$.+OO+.XO++OOOOO$.Oo",
"O..OoooooooOO$.OO.XO+O+@+@+++$.@@.X+++@+@++++$.++.X++O+OOOOOO$.OO..+ooooooooO$.OO.XO+O++++@++$.@@.X++@+@+++@+$.++.XO+O+OOOOOO$.O",
"..oooooooooOOO$..XO+O++++++@++$..X++@++++++@++$..XO+O+O+OOOOOO$..X++oooooooooO$..X++O++@+@++++$..X@+++++@+++++$..XO+O+OOOOOOOO$."
};
