/* XPM */
static char *_00589cd0a784a5780007f17a34473c9UGHEgIA2MY3Jm5Zd[] = {
/* columns rows colors chars-per-pixel */
"128 128 7 1 ",
"  c gray29",
". c gray32",
"X c #727272",
"o c gray45",
"O c gray46",
"+ c #797979",
"@ c #9D9994",
/* pixels */
" .ooooooXXXXXX@   ooOoOoOOO+OO@  .OOOOOO+O+O+O@  .OOOOoOoooooo@  .oooooXXXXXXX@  .ooooOoOOO+OO@  .OOOOO+OOOOO+@  .OOoOoOoooooo@ ",
"o .oooXoXXXXX@ XX .ooOoOOOOOO@ ++ .++OO+OOOOO@ OO .OOOOoooooo@ oo .ooooXXXXXX@ Xo .ooooOOOOOO@ O+ .++OOO+O+OO@ OO .OOoOoooooo@ o",
"oo .XXXXXXoo@ XXoo .oooOOoOO@ O+++ .OOOOO++O@ +OOO .OooOoooo@ oooo .ooooXXXX@ XXoo  OooOOOOO@ O++O .O+O+OOO+@ OOO+ .OOOooooo@ oo",
"ooo  XXXXXo@ XXXooo .ooO+++@ +O+O++ .++OOOO@ OOO+OO .OOoooo@ oooooo  XXoXXX@ XXXooo .ooOO++@ ++++++ .O+O+OO@ O+OOOO .OoOooo@ ooo",
"oooo .ooXX@ XXXXooXX  oo+O@ ++++O+++ .O++O@ OO+OO+O+ .OOoo@ oooooooo .oooo@ XXXXXXXX .oo++@ O++OO+O+ .O+OO@ OOOOO+OO .OOoo@ oooo",
"ooooo .oo@ oXXXXooXXo .oO@ ++O+O+++O+ .O+@ O+OOOOOOOO .OO@ oooooooooo .oo@ oXXXXXXXXo  oO@ ++++++++++ .O+@ O+O+OOO+OO .OO@ ooooo",
"oooooo .@ XXXXXXoXXXoo  @ O+O+++O+O+++ .@ O+OOOOO+OOO+ .@ oooooooooooo .@ XXXXXXXXoooo .@ O+OO+O++O+O+ .@ O+OOO+OOOO+O .@ oooooo",
"ooooooo  oXXXXXXoXXXooo  o+O+++O+++++O+  ++++OO+OO+OOOO  OOOooooooooooo  oXXXXXXXoooooo  o+O+++++O+++++  ++++OOO+O+OOO+  OOOoooo",
"ooooooo  oooooXXXoooooo  oooOO+++O+O+++  ++++O+OOOO+O+O  OOOOOOoooooooo  oooooooXXXXXXo  ooO+O+++++++O+  ++++O+OO+O+OO+  OOOOOOo",
"oooooo .@ OoooXXXooooo .@ ooO++O++++O+ .@ +++++O+OOOOO .@ OOOOoooooooo .@ ooooooooXXXX .@ ooO+OO+O+O++ .@ ++++O+OOOO+O .@ OOOOoo",
"ooooo .oo@ oooooXXooo  oo@ ooOO++OO++ .OO@ +++++O+O++ .OO@ OOOOOooooo .oo@ oooXXooooX  Oo@ ooOO++O++O .+O@ ++++++OOOO .OO@ OOOOO",
"oooo .ooOO@ ooooXXoo  oooo@ oo+OO+++ .++++@ +++++O+O .OO+O@ OOOOOooo .oooo@ ooXXoooo  OOoo@ oo+OO++O .++++@ +++++++O .OOOO@ OOOO",
"OOO .ooooOo@ OooXXX  oooXXX@ ooOO+O .++++++@ +++++O .OO+OO+@ OOOOOO .ooooOo@ oooooo  XXXoXX@ XXo+O+ .++O++O@ +++++O .OO++O+@ OOO",
"OO .ooooOoOo@ ooXX  XXooXXXX@ oO+O .+O+OO++O@ ++++ .++OO+OOO@ OOOO .ooooOoOO@ oooo  oXXXooXX@ XoO+ .+O+++O++@ ++++ .+OOOOOOO@ OO",
"O .OOooooOoOo@ Oo  OXXXXXXooo@ o+ .+O+++O+++O@ ++ .+OO+OOOOOO@ OO .OOooooOooo@ oo  oooXXXXXXX@ X+ .OO++O+++++@ ++ .+O++OOOOOO@ O",
" .OOOOOoOoOoOo@  .OOXXXXXXoooo@  .OO+OO++++O++@  .++++O++OO+O+@  .OOOOOoOooooo@  .ooooXXXXXXXX@  .O++OO++O+O+O@  .++++O+O++OO+@ ",
" .OOOOOOoooOoO@  .oooooXXXXXXX@   OO+OO+O++O++@  .++++O+O+OO+O@  .OOOOOOoOoOoO@  .oooooXXXXXXX@  .O++O+O+++O++@  .++++++O+OOOO@ ",
"O .OOOOOOOOoO@ oo  ooooXXXXXX@ Xo .+O++O+O+++@ O+ .O+++O+O++O@ OO .OOOOOOOOoo@ oo .oooXXXXXXX@ Xo .OO+O+OO+++@ O+ .O+++O+O+O+@ O",
"OO .OOOOOOOO@ oOOO .ooooXXXX@ XXoo  ++O++OO+@ +++O .++++O++O@ OOO+ .OOOOOOOO@ oOOo .XXXXXXXX@ XXoo .+O+O+OO+@ ++O+ .O+++OO++@ O+",
"O++ .OOOOOO@ oOooOO  oooXXX@ XXXooo .O+OO+O@ O+O+++ .++++OO@ ++OOOO .OOOOOO@ OOooOO  XXXXXX@ XXXooo .+O+O++@ O+O+++ .+++++O@ O+O",
"OO+O .OOOO@ OOooOooO .ooXX@ XXXXXXXX .OO+O@ +O+++++O .+++O@ O+O+OOO+ .+OOO@ OOoooOoO .ooXX@ XXXXooXX  +O++@ +O+++++O .O++O@ +O+O",
"+OOO+ .OO@ OOOOooooOo .oX@ XXXXXXXXXo .o+@ OO+O+O++++ .O+@ ++O+O++OOO .OO@ OOOOoooooo .oX@ XXXXXooXXo .OO@ OO+O++O+++ .++@ +O+O+",
"+O+OOO .@ OOOOOOOooooo .@ XXXXXXXXoooo .@ O++O+O+++OO+ .@ O+O+O+O+OOO+ .@ OOOOOOOooooo .@ XXXXXXXXXXoo .@ +O+O+O+O+O++ .@ +O+O+O",
"O+O++OO  OOOOOOOOOoooOo  XXXXXXXXoooooo  O+OO+O+OO+++++  O+O+O+O+O+O+OO  OOOOOOOOOooooo  XXXXXXXXXXXooo  OO+O+O+O++++O+  OO+O+O+",
"+O+O+O+  OOOOOOOOOOOoOO  XXXXXXXXXXXXXo  ooOO+O++O+O+++  O+O+OO+O+O+O+O  OOOOOOOOOOOoOo  oooXXXXXXXXXXX  ooooO+OO+O++++  +O+O+O+",
"O+O+O+ .@ OOOoOoOoOOOo .@ ooXXXXooXXXX .@ OoOO+OO+O++O .@ ++O++O+O+O+O .@ OOoOOoOoOOOo .@ ooXXXXXXXXXX  @ ooOOO++O++OO .@ +++O+O",
"+O+OO .OO@ OoOoOoOoOO .oo@ oXXXXooooX  Oo@ OOoO++OOO+ .++@ O++O+O+O++ .Oo@ OOoOoOoOoO .oo@ oXXXXXXXXo  OX@ oOOOOOOOOO .++@ ++OO+",
"O+O+ .OOOO@ OoOoOoOo .Oooo@ XXXXoooo  OOoo@ oOOoOO+O .OO++@ +O+O+O+O .OOOO@ oOoOoOoO .OOoo@ XXXoXXXX .OOXo@ OOOO+OO+ .O++O@ +++O",
"O++ .O+OOOO@ ooOoOo .OoOooo@ XXXooo  XXXooo@ ooOOOO .O+O+O+@ ++OO+O .OOOOOO@ OOoOoO .oOoooO@ oooooo .oooXXX@ OOoOOO .OOO+++@ O++",
"+O .+OOOOOOO@ OoOo .oOOooooo@ XXoo  oXXXooXo@ ooOO .OOOO+O++@ +++O .+O+OOOOO@ oOoO .oOoOoOoo@ oooo .ooXoXXXX@ oOoO .+OO+OO+O@ +O",
"+ .+O+O++OOOO@ Oo .OOoOoooooo@ Xo  oooXXXXXXo@ Oo .OOO+OOOO+O@ ++ .+OOOOOOOOO@ OO .oOoOoOoooo@ oo  oXXXXXXooo@ oO .OOOOOOO++O@ +",
" .+OOOOOOOOOOO@  .OooOoooooooo@  .ooooXXXXXXoo@  .OOO+OO+OOO++@  .+O+O+OO+OOOO@  .oOoOoOoooooo@   XXXXXXXooooo@  .OOOO+O+OOO++@ ",
" .+OOO+O+OOOOO@  .OOoOoOoooooo@  .oooooXXXXXXX@   oOOoOOOOOO++@  .+O+O+OOOOOOO@  .OooOoOoooooo@  .ooooXXXXXXXX@   oooOOOOO+O+O@ ",
"O .+O+OOOO+O+@ OO .oOoOoooooo@ oo .ooooXXXXXX@ Xo .OoOOOO+O++@ O+ .+OOOOO+O+O@ OO .OOoOoooooo@ oo .oooXXXXXXX@ XX .OOoOOO+OO+@ +",
"++ .+O+O+O+O@ OOOO .ooOooooo@ oooo .ooooXXXX@ XXoo  OOoOOOOO@ ++++ .+O+O+OOO@ OOOO .oOoooooo@ ooOo .XXXXXXXX@ XXoo .oOOoOOOO@ ++",
"O++ .OOOOOO@ +OO+OO .Oooooo@ oooooo  XXoXXX@ XXXooo .oOoOO+@ O+OO++ .OOOOOO@ ++OOOO .oOoooo@ oooooo  XXXXXX@ XXXooo .OoOOO+@ ++O",
"+++O .OO+O@ O+OOOOOO .OOoo@ oooooooo .ooXX@ XXXXXXXX .ooOO@ +O+++O++ .OO+O@ OOOOO+OO .Oooo@ oooooooo .ooXX@ XXXXooXX  OOoO@ ++O+",
"O++++ .+O@ OOO+O+OOOO .Oo@ oooooooooo .oX@ XXXXXXXXXo .oo@ o+++O++O++ .+O@ O+O+OOOOOO .Oo@ oooooooooo .oo@ XXXXXooXXo .oO@ oO+++",
"+O+O++ .@ OOOOOOOOO+OO .@ oooooooooooo .@ XXXXXXXXoooo .@ oOO++++++++O .@ +OOOO++OOOOO .@ oooooooooooo .@ XXXXXXXXXXoo  @ oO+OO+",
"+++++OO  ++O+O+O+OOOOOO  oooooooooooooo  oXXXXXXXXXoooo  OOoOOO+O+O++O+  O+O+OOOOOO+OOO  oooooooooooooo  oXXXXXXXXXXooo  oOoO+O+",
"O++++++  OO+OOOOOOOOO+O  OOoooooooooooo  oooXXXXXXXXXXo  ooOOO+O++++++O  O+OOOOOOOOOOOO  OOOooooooooooO  oooXXXXXoooooo  OoOoOO+",
"+O+O+O .@ +OO+O++O+OOO .@ OOoooooooooo .@ ooXXXXXXXXXX .@ OoOoOo+OO+O+ .@ O++++OO++O+O .@ OOoooooooooo .@ ooXXXXXooooo .@ ooOo+O",
"O+++O .++@ +O++OOO+OO .OO@ OOoooooooo .Oo@ oXXXXXXooX  Oo@ oOoXoO+O+O .++@ +O+OOOOOOO .+O@ OOoooooooo .Oo@ oXXXoXXooo  oo@ ooooO",
"+OO+ .O+O+@ +O+O+OOO .+OOO@ OOOooooo .oOoo@ XXXXXXoo  OOoo@ ooXX+O+O .+++O@ +O+O+O+O .OO+O@ OOOooooo .oooo@ XXXoXXoo  oooo@ oooo",
"OO+ .O+++++@ O+OO+O .+O++O+@ OOOooo .oOoooo@ XXXooo  XXXooo@ XXXO++ .++O+++@ OO+O+O .OO+OO+@ OOOooo .ooOooo@ oooXXX  oooXXX@ ooo",
"o+ .+OO+O+O+@ O++O .OOOOOOOO@ OOOO .oOoOoooo@ XXoo .oXXXooXo@ XXoO .+O++O+O+@ +O+O .+OOOO+OO@ OOOo .oOOooooo@ ooXX  XXooXXXX@ oo",
"o .OO+O+++O+O@ ++ .++OOOO+O++@ OO .oooooooooo@ Xo  oooXXXXXXX@ Xo .OO+O+O++++@ +O .++OO+OOOOO@ OO .ooOoOOoooo@ oo  OXXXXXXXXo@ o",
" .o++O+O+O++++@  .OO+O+OOOOOOO@  .OOoooooooooo@  .ooooXXXXXXXX@  .oO+O+O+O+O++@  .O+O+OOO+O+OO@  .OOooOooooooo@  .OOXXXXXXXXXo@ ",
" .ooo+O++O+O++@  .O+O+O+O+O+OO@  .OOOOOooooooo@  .oOooooXXXXXX@  .ooOO+O+OO+++@  .++O++OOO+OOO@  .OOOOoOoooooo@  .ooooooooXXXX@ ",
"o .ooO+OO+O++@ ++ .++O+OOOOOO@ OO .OOOoOooooo@ oo .oooooXXXXX@ Xo .ooOO+O++OO@ +O .O+OO++OOOO@ +O .OOoOoooooo@ oo .oooooXoXXX@ X",
"oo  ooO++O+O@ ++O+ .O+O+O++O@ O+OO .OoOoOooo@ oooo .ooooXXXX@ XXoo .oo+O+O++@ +O++ .OO+OO++O@ OOOO .OooOOooo@ oooO .OOooXXXX@ XX",
"ooo .ooOO+O@ O+O++O .O+O+O+@ +OOO+O .OoOoOo@ ooooOO  oXXXXX@ XXXooo .ooOO+O@ O+++O+ .+O++O+@ +O+O+O .OOoOOo@ oooooO  oooXXX@ XXX",
"XXXX .ooOO@ +O+O++++ .+OO+@ +O+OO+O+ .OOoO@ oooooOoO .OoXX@ XXXXXXXX  ooOO@ +O++++++ .+OO+@ +OOOOOOO .OOoo@ ooooOoOo .ooXX@ XXXX",
"XXXoo  oo@ +O+O+O+O++ .++@ OO+OOOOOOO .oO@ OOoOOOoOoO .oo@ XXXXXXXXXo .oO@ +O++OO+O+O .+O@ OO++OO+O+O .OO@ OOooOoOoOO .OX@ XXXXX",
"XXoooo .@ OO+O+O+++O++ .@ O++O+O+OOOOo .@ oOoOOooOoOoO .@ XXXXXXXXXXoo  @ OOO+O+O+++++ .@ O+++OOOOOOOO .@ OooOoOOoOooO .@ XXXXXX",
"XXooooo  oOoO+O++O++O+O  O+O+++OO++OOOO  oOoOooOOoOoOoo  oXXXXXXXXXXooo  ooOOO+O++O+O++  ++OO+++++O+OOo  OoOOoOooOoOOoo  oXXXXXX",
"XXXXooo  ooooooOO++O+O+  +O+++O++++OOOO  OOOOoOooOoOoOo  OooooXXXoooooo  oXooooO+O++O+O  ++OO++++O+OOOO  OOOoOoOOoOooOO  ooooooo",
"XXXXoo  @ ooooO++OO+++ .@ +OO++++O+OOO .@ OooOoOOoOoOo .@ OoooXXXooooo .@ ooooOOO+O+++ .@ O+++O++++OO+ .@ OoOoOooOoOOo .@ oooooo",
"XXXXo  Xo@ oooooOOO+O .++@ ++++O++OO+ .OO@ oOoOooOoOO .Oo@ oooooXXooo  oo@ oooOOOOOOO .+O@ ++++O++OOO .OO@ OoOoOOoOoo .oo@ oooXX",
"XXXX .oXoo@ ooooOOOO .O++O@ O++++OO+ .OOOO@ oOoOOoOo .ooOO@ ooooXXoo  oooo@ ooOOOOOO .O+++@ +O++OO+O .OOOO@ OoOooOoO .Oooo@ ooXX",
"XXo .oXXooX@ XXoOoO .OOOOOO@ +++OOO .O+OOOO@ OOooOo .OoOoOo@ oooXXX  oooXXX@ oooOoO .O+OO+O@ ++O++O .OO+OOO@ ooOOoO .OoOooo@ ooo",
"XX .ooXXXXXX@ XXoO .OO+O+OOO@ O+++ .O+OO+OOO@ OOOo .OoOoOooo@ ooXX  XXooXXXX@ oooo .+OOOOOOO@ ++OO .+OOO+OOO@ OooO .oOOooooo@ oX",
"X  OoXXXXXXXX@ Xo .oOoOOO+O+O@ +O .OOOOOO+O+O@ Oo .OoOoOooooo@ oo  OXXXXXXXXo@ oo .oOoOOOO+OO@ ++ .OO+O+OOO+O@ OO .oOoOoooooo@ o",
"  OOooXXXXXXXX@  .oOOOOOOOOO+O@  .O+O+O+OOOOOO@  .OoOoOoOooooo@  .OOXXXXXXXXXo@  .OOoOO+O+OOOO@  .+OOOOO+OOOOO@  .oOoOoooooooo@ ",
" .ooXXooXXXXXX@  .oooOoOO+O+OO@  .+O+O+OO+O+O+@  .OOoOoOoooooo@  .oooooXXXXXXX@  .ooooOoOOO+OO@  .OOOOO+OOOOO+@  .OOoOoOoooooo@ ",
"o .oXXooXXXXX@ Xo .oOoOoOOOOO@ OO .+OOOOOOOOO@ OO .OOoOoooooo@ oo  ooooXXXXXX@ Xo .ooooOOOOOO@ O+ .++OOO+O+OO@ OO .OOoOoooooo@ o",
"oo .XXooXXXX@ XXoo .oOoOOoOO@ O+++ .+OOOO+OO@ OOOO .OooOoooo@ oooo .ooooXXXX@ XXoo  OooOOOOO@ O++O .O+O+OOO+@ OOO+ .OOOooooo@ oo",
"ooo  XooXXX@ XXXooo .ooOO++@ +++O+O .++OOO+@ O+OOOO .OOOooo@ ooooOO  XooXXX@ XXXooo .ooOO++@ ++++++ .O+O+OO@ O+OOOO .OoOooo@ ooo",
"oooo .ooXX@ XXXXooXX  oo++@ O++++O++ .+++O@ OOOO+O+O .OOOo@ oooooooo .oooo@ XXXXXXXX .oo++@ O++OO+O+ .O+OO@ OOOOO+OO .OOoo@ oooo",
"ooooo  OX@ oXXXXooXXo .oO@ ++++O++O+O .OO@ ++O+OOOOOO .OO@ oooooooooo .oo@ oXXXXXXXXo  oO@ ++++++++++ .O+@ O+O+OOO+OO .OO@ ooooo",
"oooooo  @ ooXXXXXXXXoo .@ O+O+++++++++ .@ O+OO+OOO+OO+ .@ oooooooooooo .@ XXXXXXXXoooo .@ O+OO+O++O+O+ .@ O+OOO+OOOO+O .@ oooooo",
"oooooOO  oXoXXXXXXXXooo  o+O++O+O+O++O+  ++++OOOO+OOOOO  OOOooooooooooo  oXXXXXXXoooooo  o+O+++++O+++++  ++++OOO+O+OOO+  OOOoooo",
"ooooooo  oOoooXXXXXXXXX  XXooO+O++++O+O  ++++++O+OOOOOO  OOOOOooooooooo  oooooooXXXXXXo  ooO+O+++++++O+  ++++O+OO+O+OO+  OOOOOOo",
"oooooo .@ oOooXXXXXXXX  @ XXO++OO++O++ .@ ++++O+OO+O+O .@ OOOOoOoooooo .@ ooooooooXXXX .@ ooO+OO+O+O++ .@ ++++O+OOOO+O .@ OOOOoo",
"ooooo .oO@ oooooXXXXo  OX@ XoOO+++O+O .++@ ++++++OOOO .+O@ OOOOOooooo .oo@ oooXXooooX  Oo@ ooOO++O++O .+O@ ++++++OOOO .OO@ OOOOO",
"oooo .oooO@ ooooXXXX .OOXX@ oo+OO+++ .++O+@ O++++++O .OOOO@ OOOOOooo .oooo@ ooXXoooo  OOoo@ oo+OO++O .++++@ +++++++O .OOOO@ OOOO",
"OOO .oooOoO@ Oooooo .oooXXX@ oooO++ .O+++++@ ++++++ .OOO+OO@ OOOOOO .ooooOo@ oooooo  XXXoXX@ XXo+O+ .++O++O@ +++++O .OO++O+@ OOO",
"OO .oooooOoO@ oooo .ooXoXXXX@ oo+O .++O+O+O+@ ++++ .+++OOOO+@ +OOO .ooooOoOO@ oooo  oXXXooXX@ XoO+ .+O+++O++@ ++++ .+OOOOOOO@ OO",
"O .OOoooOoOoo@ oo  oXXXXXXXoo@ XO .OO++++++OO@ +O .+O+OOOOOOO@ OO .OOooooOooo@ oo  oooXXXXXXX@ X+ .OO++O+++++@ ++ .+O++OOOOOO@ O",
" .OOOOOooOoOoO@   XXXXXXXXXooo@  .+O+O+OO+++++@  .+++O+++O+O+O@  .OOOOOoOooooo@  .ooooXXXXXXXX@  .O++OO++O+O+O@  .++++O+O++OO+@ ",
" .OOOOOOOOoOoo@  .ooooXXXXXXXX@  .+OO+O+O+++O+@  .O+++O+O+OO+O@  .OOOOOOoOoOoO@  .oooooXXXXXXX@  .O++O+O+++O++@  .++++++O+OOOO@ ",
"O .OOOOOOOOoO@ Oo .oooooXXXXX@ Xo .++O+OO++O+@ ++ .++++++OO+O@ OO .OOOOOOOOoo@ oo .oooXXXXXXX@ Xo .OO+O+OO+++@ O+ .O+++O+O+O+@ O",
"OO .OOOOOOOO@ oOoO .ooooXXXX@ XXoo .O++O+O++@ O+++ .++++O++O@ OOO+ .OOOOOOOO@ oOOo .XXXXXXXX@ XXoo .+O+O+OO+@ ++O+ .O+++OO++@ O+",
"+OO .OOOOOO@ oOoOoO  oooXXX@ XXXooo .+O+O+O@ O++O++ .+O++O+@ O+OOOO .OOOOOO@ OOooOO  XXXXXX@ XXXooo .+O+O++@ O+O+++ .+++++O@ O+O",
"OO+O .OOOO@ OOoooOoo .ooXX@ XXXXooXX  +OO+@ +O++O+++ .+O+O@ O+O+OOO+ .+OOO@ OOoooOoO .ooXX@ XXXXooXX  +O++@ +O+++++O .O++O@ +O+O",
"O+OOO .OO@ OOOOooooOo .oX@ XXXXXXXXXo .o+@ OO++O+++O+ .++@ ++O+O++OOO .OO@ OOOOoooooo .oX@ XXXXXooXXo .OO@ OO+O++O+++ .++@ +O+O+",
"+O+OOO .@ OOOOOOOooooo .@ XXXXXXXXXXoo  @ O+O+O+O++O+O .@ +OO+O+O+OOO+ .@ OOOOOOOooooo .@ XXXXXXXXXXoo .@ +O+O+O+O+O++ .@ +O+O+O",
"O+O++O+  OOOOOOOOOooooo  XXXXXXXXXXXooo  O+O+O+O+O+++++  +O++O+O+O+O+OO  OOOOOOOOOooooo  XXXXXXXXXXXooo  OO+O+O+O++++O+  OO+O+O+",
"+O+OO++  OOOOOOOOOOOooO  XXXXXXXXoooooo  oOoOO+OO+O+O++  +O+O+O+O+O+O+O  OOOOOOOOOOOoOo  oooXXXXXXXXXXX  ooooO+OO+O++++  +O+O+O+",
"O+O++O .@ OoOooOOoOOOO .@ XXXXXXXooooo .@ ooO+O++++OO+ .@ +++O+O+O+O+O .@ OOoOOoOoOOOo .@ ooXXXXXXXXXX  @ ooOOO++O++OO .@ +++O+O",
"+O+OO .OO@ OOoOooOoOO .oo@ XXXXXXXooo  oo@ ooO+OOOO+O .O+@ O+OO+O+O++ .Oo@ OOoOoOoOoO .oo@ oXXXXXXXXo  OX@ oOOOOOOOOO .++@ ++OO+",
"O+O+ .OOOO@ oOoOOoOo .oOoo@ XXXXXXoo  oooo@ OoOO+OOO .+++O@ +++O+O+O .OOOO@ oOoOoOoO .OOoo@ XXXoXXXX .OOXo@ OOOO+OO+ .O++O@ +++O",
"+O+ .O+OOOO@ OoOOoO .OoOooo@ oooXXX  oooXXX@ oOooOO .OOO+++@ +++O+O .OOOOOO@ OOoOoO .oOoooO@ oooooo .oooXXX@ OOoOOO .OOO+++@ O++",
"O+ .+OOOOOOO@ OooO .ooOooooo@ ooXX  XXooXXXo@ oOOo .OO+OOOO+@ +O+O .+O+OOOOO@ oOoO .oOoOoOoo@ oooo .ooXoXXXX@ oOoO .+OO+OO+O@ +O",
"+ .+OOO+O+OOO@ oo .oOooOOoooo@ oo  OXXXXXXooo@ OO .O+OO+OOO+O@ ++ .+OOOOOOOOO@ OO .oOoOoOoooo@ oo  oXXXXXXooo@ oO .OOOOOOO++O@ +",
" .+O+OOOOOOOOO@  .OOoOOooooooo@  .OOXXXXXXoooo@  .OOOOOO+O+O++@  .+O+O+OO+OOOO@  .oOoOoOoooooo@   XXXXXXXooooo@  .OOOO+O+OOO++@ ",
" .+OOOO+OO+O+O@  .OOOoOOoooooo@  .oooooXXXXXXX@   OOOoOOOO+O++@  .+O+O+OOOOOOO@  .OooOoOoooooo@  .ooooXXXXXXXX@   oooOOOOO+O+O@ ",
"O .++OOOO+OOO@ OO .ooOooooooo@ oo  OooooXXXXX@ Xo .ooOOOO+OO+@ O+ .+OOOOO+O+O@ OO .OOoOoooooo@ oo .oooXXXXXXX@ XX .OOoOOO+OO+@ +",
"+O .++O+OOOO@ OOOO .Oooooooo@ oooo .ooooXXXX@ XXoo  OoOOOOOO@ O+++ .+O+O+OOO@ OOOO .oOoooooo@ ooOo .XXXXXXXX@ XXoo .oOOoOOOO@ ++",
"+++ .OOOO+O@ O+OOOO .oOoooo@ oooooo  OooXXX@ XXXooo .OoOOOO@ +++O++ .OOOOOO@ ++OOOO .oOoooo@ oooooo  XXXXXX@ XXXooo .OoOOO+@ ++O",
"++++ .OOOO@ +O+OOOOO .Oooo@ oooooooo .ooXX@ XXXXXXXX .ooOo@ +++++O++ .OO+O@ OOOOO+OO .Oooo@ oooooooo .ooXX@ XXXXooXX  OOoO@ ++O+",
"+O+O+ .+O@ +OOOOO+OOO .Oo@ oooooooooo .oX@ XXXXXXXXXo .Oo@ OO+O+++O++ .+O@ O+O+OOOOOO .Oo@ oooooooooo .oo@ XXXXXooXXo .oO@ oO+++",
"O++++O .@ +OOO+OOOOOOO .@ oooooooooooo .@ oXXXXXXXoXoo .@ Oo+O+O+++++O .@ +OOOO++OOOOO .@ oooooooooooo .@ XXXXXXXXXXoo  @ oO+OO+",
"+++O++O  +OOO+OOO+O++OO  oooooooooooooO  oXXXXXXXXooooo  OoOo++OO+O++O+  O+O+OOOOOO+OOO  oooooooooooooo  oXXXXXXXXXXooo  oOoO+O+",
"O++O++O  +O+OOOO+O+OOO+  OOOooooooooooo  oXXXXXXXXXXooo  oOOooO+++++++O  O+OOOOOOOOOOOO  OOOooooooooooO  oooXXXXXoooooo  OoOoOO+",
"+O+++O .@ +O+OO+OOOO+O .@ OOoooooooooo .@ XXXXXXXXXXoo  @ oOoo+O+OO+O+ .@ O++++OO++O+O .@ OOoooooooooo .@ ooXXXXXooooo .@ ooOo+O",
"+OO++ .+O@ OO++OOO+OO .OO@ OOoooooooo .Oo@ XXXXXXXXXo  Xo@ OooooO+O+O .++@ +O+OOOOOOO .+O@ OOoooooooo .Oo@ oXXXoXXooo  oo@ ooooO",
"O+O+ .+O++@ +O+OO+OO .OOOO@ OOOooooo .Oooo@ XXooXXXX .oXoo@ oooX+O+O .+++O@ +O+O+O+O .OO+O@ OOOooooo .oooo@ XXXoXXoo  oooo@ oooo",
"+OO .++++++@ OO++OO .+O+O+O@ OOOooo .oOoooo@ oooXXo .oXXooX@ XXXO++ .++O+++@ OO+O+O .OO+OO+@ OOOooo .ooOooo@ oooXXX  oooXXX@ ooo",
"o+ .+OO++O++@ +OO+ .OOOOOOO+@ OOOO .oOoOoooo@ ooXX .ooXXooXX@ XXoO .+O++O+O+@ +O+O .+OOOO+OO@ OOOo .oOOooooo@ ooXX  XXooXXXX@ oo",
"o .OO+O++O+O+@ ++ .++OO+O+OOO@ OO .ooOOoooooo@ oX  OoooXXXXXX@ Xo .OO+O+O++++@ +O .++OO+OOOOO@ OO .ooOoOOoooo@ oo  OXXXXXXXXo@ o",
" .oO+O+OO++++O@  .O+O+OOOOO+OO@  .OOoooooooooo@   OOooXXXXXXXX@  .oO+O+O+O+O++@  .O+O+OOO+O+OO@  .OOooOooooooo@  .OOXXXXXXXXXo@ ",
" .ooO+O++O+OO+@  .+OO+O+OO+OO+@  .OOOOoOoooooo@  .ooXXooXXXXXX@  .ooOO+O+OO+++@  .++O++OOO+OOO@  .OOOOoOoooooo@  .ooooooooXXXX@ ",
"o  ooO+OO+O++@ +O .++O+O+OOOO@ OO .OOOOoooooo@ oo .OoXooXXXXX@ Xo .ooOO+O++OO@ +O .O+OO++OOOO@ +O .OOoOoooooo@ oo .oooooXoXXX@ X",
"oo .ooO++O+O@ O+++ .O++OO+OO@ OOOO .OOoOOooo@ oooo .ooooXXXX@ XXoo .oo+O+O++@ +O++ .OO+OO++O@ OOOO .OooOOooo@ oooO .OOooXXXX@ XX",
"ooo .ooOO+O@ ++++O+ .+O++O+@ OO++OO .OOooOo@ ooooOO  oooXXX@ XXXooo .ooOO+O@ O+++O+ .+O++O+@ +O+O+O .OOoOOo@ oooooO  oooXXX@ XXX",
"ooXX  ooOO@ O+O+O+O+ .+OO+@ +OO++OOO .oOOo@ oooOOoOo .OoXX@ XXXXXXXX  ooOO@ +O++++++ .+OO+@ +OOOOOOO .OOoo@ ooooOoOo .ooXX@ XXXX",
"ooXXo .oO@ ++O+O+++++ .O+@ OO++OOOO+O .OO@ OOooOoOoOo .oX@ XXXXXXXXXo .oO@ +O++OO+O+O .+O@ OO++OO+O+O .OO@ OOooOoOoOO .OX@ XXXXX",
"XXXXoo .@ OOO++OO+++++ .@ O+O+O++OO+OO .@ OoOoOoOoOooO  @ XXXXXXXXXXoo  @ OOO+O+O+++++ .@ O+++OOOOOOOO .@ OooOoOOoOooO .@ XXXXXX",
"XXXXooo  oOOo+O++O+OO++  O+O+++OO+OOOOO  ooOoOoOoOoOoOO  oXXXXXXXXXXooo  ooOOO+O++O+O++  ++OO+++++O+OOo  OoOOoOooOoOOoo  oXXXXXX",
"XXXXXXX  XXooo+OO+O++O+  +O+O+O+O+++OOO  ooOOoOoOoOoOoO  OooooXXXoooooo  oXooooO+O++O+O  ++OO++++O+OOOO  OOOoOoOOoOooOO  ooooooo",
"XXXXXX  @ XXooOo++O+++ .@ +O++++++OOOO .@ OooOoOoOoOoO .@ OoooXoXooooo .@ ooooOOO+O+++ .@ O+++O++++OO+ .@ OoOoOooOoOOo .@ oooooo",
"XXXXo  OX@ XoooooO+OO .+O@ +++O+O+OO+ .OO@ OOoOoOoOoO .oo@ OooooXXooo  oo@ oooOOOOOOO .+O@ ++++O++OOO .OO@ OoOoOOoOoo .oo@ oooXX",
"XXXX .OOXX@ ooooOOOO .O+++@ +O++++O+ .OOOO@ oOoOoOoO .oOOo@ ooooXXoo  oooo@ ooOOOOOO .O+++@ +O++OO+O .OOOO@ OoOooOoO .Oooo@ ooXX",
"ooo .oooXXX@ ooooOo .OOOOOO@ O+++OO .O+OO+O@ OOoOoo .oOooOo@ oooXXX  oooXXX@ oooOoO .O+OO+O@ ++O++O .OO+OOO@ ooOOoO .OoOooo@ ooo",
"oo .ooXoXXXX@ ooOo .OO+OO+OO@ O++O .+OOOOOOO@ oOoO .oOoOoooo@ ooXX  XXooXXXX@ oooo .+OOOOOOO@ ++OO .+OOO+OOO@ OooO .oOOooooo@ oX",
"o  oXXXXXXXXo@ oo .OoOOO+OO+O@ ++ .OOO+O+OOOO@ OO .OOoOoooooo@ oo  OXXXXXXXXo@ oo .oOoOOOO+OO@ ++ .OO+O+OOO+O@ OO .oOoOoooooo@ o",
"  XXXXXXXXXXoo@  .OoOOO+OOOO+O@  .OO+OOOOOO+OO@  .oOoOoOoooooo@  .OOXXXXXXXXXo@  .OOoOO+O+OOOO@  .+OOOOO+OOOOO@  .oOoOoooooooo@ "
};
