/* XPM */
static char *bf2b83bd30034bd9e96439d73037b0d9Ma3X2uP7vMP2glJC[] = {
/* columns rows colors chars-per-pixel */
"128 128 22 1 ",
"  c #3F3F3F",
". c gray25",
"X c #464646",
"o c #494949",
"O c gray31",
"+ c #515151",
"@ c #565656",
"# c #585858",
"$ c gray36",
"% c #5D5D5D",
"& c #7E7E7E",
"* c #808080",
"= c gray52",
"- c #898989",
"; c gray56",
": c #929292",
"> c #979797",
", c #989898",
"< c gray62",
"1 c #A0A0A0",
"2 c #A4A4A4",
"3 c #A5A5A5",
/* pixels */
"&******&*******&*&*&*&*&&&&*&&&&&&&&&&*&&&&&&&&&&&&&&&&&*&&&&&&&****************&*&****&*&***&&*&&&&&&&&&&&&&&&&&&&&&&&&&&&&&&&&",
"&****=****=****&****=**=***=****&****************************&**********************=**=********&****************************&**",
"&*=================-*======*-======*==*=-=======-*==-*==*===*===============*======-*=========*===**====-========*===*===-====**",
"&**-=====*==========--==----===-=-=-==========-====-=-====-=-=-=============-=======--==-=---=--=---==========-=-==-=-===*-=-=**",
"&*==--=-=-==-==---==------=---====-=---=-==-=-=--===-=-=-==-==--=--=-==--===--==--===--=--=----==----=-===--===--==--==-===-*=**",
"&*=-=-----;---;-;-;---=---;-;;-;;--;--;--;;--;---;;-;--;-;-;;-;-=;---;-=--;----;--;--;----;--;--;----;;-;-;--;;--;--;--;;;--==**",
"&*===-;;;;;;;;;;;;;;;:;;;;:;;;;:;;;;:;;;;:;;;;;;:;;;:;:;;;;:;;;:;;;;;;-;;;;;;:;:;;;;;:;;;;:;;:;:;;;;;;:;;;;;:;;;:;;;:;;;;;-===**",
"&**=-;;:;;;;:;;:;;;;::;::::;;:;:::;::;:::;::::::::::::::::::::>:;;;;:;::;;;;;;;;;;;;::;::::;;:;:::;::;:;:;:::::::::>:::::;---=**",
"&*=--;;:::;:::::::;::;:::::>:::::::::::::::::>:::::>;:::::>;::::;::;:;::::;::::::::::;:::::::::::::::>::::::::::::>:::::;;;===**",
"&*===-;::>>:::::::>::>>:>>>:>::>>:>:>>:::>>:>:>>>>>>>>>>>::>:>>:>:::::::>:::::::::>::>::>>>:>::>:>:>:>:>:>:>>>>>,:>>:>>:;;--*=**",
"&**-=;;::>:>:>>:>:>>>>>:>:>:>:>>>>>>>>>>>>>>>>>>>>:>>:>>>>>>,>,,:>>>>>:>::>>:>>::>>>>:>>>:>>>>>>>:>>:>>>:>>>>:>>>>:,>>::;;-====*",
"&*===;;:;>>>>>:>>>:>>>>>>>>>>>>>:>>>>:>>>>>:>>>>>>,>>>>>>>>>,,,,:>>>:>>>>>:>>>>>>>:>>>>>>>>>:>>>>>>>>>>>>>>>>>>>>>>>>>::;;-===**",
"&*=-=-;::>>>>>>>:>>>,>>>>>>>>>>>>>>>>>>,>>>>>,>>>>:,>,,>,>,,,,,,>,>>>>:>>:>>>:>>:>:>>>>>>>>:,,,>>>>,>>>>>>>>>,>>>>>>:>;::;--==*&",
"&*===;;::>>>:,>,>,>>,,>>>>>,>>>,>>>>>,,>>>>>,,,>>>,>,,,>,,,,<,,,,>>>>,,>>>>>>>>>><,,>>>>,>,,,,>,>>,,>>>>>>>,,,,,>>,>>>::;:--==**",
"&*===;;::>>>,><<<<,<,<,<,<,<<,,<,<<,<,<,<,,<,<<<<<<<<,<<<,<<<<<<1,,<,<<<,<<<,<<,<,<<,<<<,<<,<,,<>,<,<,<<,<,<<,<,<<>>:>::;;-===**",
"&*==-;;::,>>,><,<<111<1<<<<<1<<1<<<<<<1<<<1<<<<<,<<<<<1<<<1<,1<<1<<<<<<<<<<1<<1<1<<1<<<<1<<<1<11<<<<<<<<1<1<<<<<<,>>>>::;;;=-***",
"**==--;::>>:>><,112111111111111111111121121111111112111111111111211111111112221211211111111211111111111111111111<<>:>:::;;;===**",
"&&=-=-;::>>>>><<111221221211211212122111111121121111112111212111211112111112222122122212211121211212121111121211<<,>>:>:;;--==*&",
"&*==-;;::>>>>,<<12*************=********=**=****=***********************&**************=*********=***=***=***=121<>>>>>:;;-===**",
"&*===-;;:>>>>,<<11*==*========*=*======*=**==*=*=**=*==**==*=======*=*=====*=*=====*==*====*===**=*=*====*=*=*211,>>>:::;;;=-=**",
"&*==-;;:::,>>,<<12*=*=*==*==**=**==**==**=**==*==*=**====*==*=***==*==*==*==*==*=*==**=*=*==*==*==*==*=****==*12<<,>>>::;;--=*=*",
"&*=-=;;::>>>>,,111*=**=*==**=====**==*===*===*==*====***=***===*==*==**=*==*=*====**====*==*==*=*==*=**===*==*11,<>>:>>::;;--=*&",
"&**---:::>>>>,<<11**==*=*=*==**===*==*=**==**==*=**===*==*===**=*=*=*==**=*==*=**=*==**=*=*=*=*=*==**===*==*=*211,,>>>::;;--==**",
"&*===;-:::>:,,,<11==*==========================================================================-=========*===*11<<,>>>:::;--===*",
"&*==--;;:>>>>:,111*==*==...X................X.........X....... ...XXXX...X.....X..X...X...........X....X=*==**21<<>>>,>>;;--==*&",
"&*===;;:::>>>,<<11*=*=*=...........X.............X......X.X.XXX.X......X..... ...........XX.. ..........===*=*211,>>>::::;;=-=*&",
"&*==--;:>>>:>>,<12*=====..XXX.X.X.. X.X.XX.XXXX.X......X .XXXXXXXoXX..X X.XXoX.oX.X...XXX..XX. Xo.......=*=*=*11<,>>>>>:::---=**",
"&*==--;:::>>>><<11**=**=...OooOOoooXOooOXOoOooXoXOoooOXOOoXoXoXO+oOoooOooOooXoOooXOooOoooOoOooOoooooOX.X==*==*11<<,:>>::;;---=**",
"&**--;;:::,>>,,<12*===*=.X.oOOoo+OoOooOOOOo+++O@oo+++o+O+o++ooO+++Oo+o+o+O+OoO+OOO+O+OOo+OOOOo+ooOoOoX..==*==*12<<,,>>:>;;;--=*&",
"&*===-:;::>>>,<<11*=*===...oo@@@##@@@@@#@@@@#$@#$#####@@##@@##@##@#######@##@@#$###$##$$##$###@###@oO ..===**=11<,>,>>::::--==*&",
"&*=---;::>:>>><<12*==*==...XO#$$$$$$$$$$$$$$$$$$$$$$$$$$$$$$$$$$$$$$$$$$$$$$$$$$$$$$$$$$$$$$$$$$$$@OO...=*=*=*11<,>,>>:::;;===**",
"&&===-;::>>>>>,111**=*==..Xoo#$$$$$$$$$$$$$$$$$$$$$$$$$$$$$$$$$$$$$$$$$$$$$$$$$$$#$$$$$$$$$$$$$$$$@ooX..==*==*111<,>:>>::;---=*&",
"&*=-=;;;:>>:>,<<11**=*==..XOo@$$$$$$$$$$$$$$$$$$$$$$$$$$$$$$$$$$$$$$$$$#$$$$$$$$$$$$$$$#$$$$$$$$$$#ooX..==**=*121,,>>>:::;;===*&",
"&*==--;:::>>>>,<12====*=..Xoo@$$$$$$$$$$$$$$$$$$$$$$$$$$$$$$$$$$$$$$$$$$$$$$$$$$$$$$$$$$$$$$$$$$$$#oo...=*===*11<<>>>:>::;---**&",
"**==-;;:::>>>><<11*=*===...o+@$$$$#$@###$######$#@@@#@###@#$@@@###@@##@@##@@#$#$$#@###@@##@@##$$$$#Oo...===***11<<>>>>>:;;---**&",
"&*=---;:>:>>>><<12**=**=..Xo+$$$$$@+OOO++O+OOOOOOOOO++OOooO+oO++O+XO++oO++oOO+oo@+o+O+OOoOoo+$$$$$@+oX..==*==*21,,>>>>:;:;;=-=&&",
"**=---;;>:>>>,,<12*=*===..XOo@$$$$@oOoooooOooOXooOXoooOOoOoooOOOoXoooXoOOoooooOXoo+ooOooOooOo@$$$$@oOX..==*==*11<<>>>>>::;;-==&&",
"**===;;::>:>>><<11*==*=*.X.oO$$$$$+ooXXoXX.X.XX.oXXXXX....X.XXXXXXXXXXX....X...X.XX o.X..X.o+$$$$$@oo...===**=11<<>>:>>::;-===*&",
"&*=--;;::>:>>>,112*==*==..XOO#$$$$#OoX....... .... X. ..X.....X.XX.X.X.X..... ............Xo+#$$$$#OoX..=*===*12<,,>>>::;;;-==*&",
"**=---;;:>>>>,<<11*=*==*..XoO#$$$$#Oo........X........X..XX..X.X.........X..X...X.....X...Xo+$$$$$@oOX..==**=*11<<,,>>>:;;-===*&",
"*===--;:::>:>><,12*=*===.. o+$$$$$+Oo..X===*-===========================================..XoO#$$$$#+XX..=*=*=*12<,>>>:>::;--==*&",
"**==-=;;:>>>>><112*=*==*X.XXO$$$$$@OOX..====*==**==**=*=*=*==*=*=**==*==*====*==*=*====*..XoO#$$$$@OO. .====**11<<,>>>>::;;===*&",
"&*=---;:;>>:>,<<21*===*=..X+O@$$$$@Oo...=*=*=**=*==*==**=*=**===*=*==**=*=*=*==*==*==*==X..OO#$$$$+OO ..==**=*11<<>>>:>::;--==*&",
"***---;;::>>>,,<11***===...o+@$$$$@OOX..==*===*==*===*====*==**==*=*=*=*=*===**=*==**==*...oO#$$$$@Ooo..=*===*21<,,>>,:::;;===*&",
"**-=-;;;:::>>><<12*=*===...oO#$$$$#+oX..===**=====*===*=*==*==*===*=**=*=****=*===*===*=...oO$$$$$#+oX.X===*=*11<<>>>>>>:;---=&&",
"**===-;;;>>>>><<21*==*==X XOO#$$$$#OoX..=*==***********************=*==****=*********===X.XOO$$$$$#oOX..=**==*11<<,,>::::;;===*&",
"**===;;;::>>>,<<12*==*=*...oO#$$$$#OoX..===*=*121222212111211112111111111211122111*===*=...oO#$$$$#+XX..==*=**11<<,>>>>::;;=-=*&",
"**==--;;>::>:><<12*=*===. XoO$$$$$#@oX..=*=*=*112212211111111112111111111111111112*=**==. XXO#$$$$$@o...===*=*21<,>>>>>::;--==*&",
"***-=;;;::>>>>,121*==*==X.oXO#$$$$#ooX..==*=**11<1<<<<<<1<<<<<111<<,<1<<<1<<1<<<21*=*===..ooO#$$$$#ooXX.=**==*11,<>>>>>::;--=-*&",
"&*===;;;::>:>><112*=*===..XO+#$$$$@o+ ..===*=*11<<<<<<<,,<<<<,,<<<<11<,<<<<,<,<<21*=*=*=..X+O#$$$$#oO...====**211<>>>>:>:;;==**&",
"**==--;;::>>>><<22**==*=..XXO#$$$$$Oo...=*=***11<,,,>>,>>>>>>>>>,<,,,,,,>,>,,,<<22*===*=..XXO@$$$$#Oo...==****11<,,>,>>::;-===**",
"**==-=;::;>::>,<22*=**==..Xoo@$$$$#+oX..==*==*12<<,,:>>>>>:>>>>>,,,,,>,,>>>>,,,<22***===..XXO#$$$$@Oo...=*==*=21<<>,>,>:::---=*&",
"**===-;:::>>:><122**==*=..Xo+#$$$$#+oX .==*==*111,,>>:>:>:>:>>>>,,,>,>>>>>>>>>,122*=*===X..Oo#$$$$$@oX .===***111,,>>>>;:;;-==*&",
"**==--;;::>:>><<12*=*===X..O+#$$$$#oO...===***11<<>>>>>>>>>>>:>:,,:>>>>>:>>>>><<11*==*=*..Xo+@$$$$#oO...-**==*11<<>>>>>::;;=-**&",
"**=*=-;;:::>>><111*=*=*=.. +O@$$$$@Oo...=*===*21<<>>>>>:::>::::>>>>>>>:>>>>:>,<111*==*==..XoO#$$$$#+X...====**21<<,>>>>::;-===*&",
"*===--;;::>:>>,<11**==*=. Xo+@$$$$@OO.X.==**=*11<<>>>>::;:;:;:;;::;:;::::::>>>,<11*=*=*=X..OO#$$$#@OOX..==**=*11<<,>>>:::;;=-=*&",
"**==--;:::>>>>,<11*=*===..Xoo@#$$$#+O...===***11<<,,,>>:::;:;;;;:::::::::::>>>,111**=*==.X.o+#$$$$@OO.X.=*==**11<<,,>>>::;;==**&",
"**===-;;::>:>,<<11*==**=X.XoO@$$$$@ooX..-*=*=*11<,,,>>:::;;;;;;;:;:;;;;;::>:>><<11====*=X.Xoo#$$$$@oo...===*=*11<<,,>>:>:;;=*-*&",
"**==--;;::>:>><<11*=====X..O+@$$$$@+X.X.=**==*21<<<>>>>:::=-;-;-;;-;;-;;;>>>>,<<11*=*===...O+@$$$$#+XXX.=***=*21<<,,>>::::-=-=**",
"**===-;;::>>>,,<11*=*=*=. .o+$$$$#@+OX..==*==*11<<,>>:>;:;;-=-==-===--;:::>:>,,<11*==**=X..o+#$$$$#+oX..====**11<<,,,:>::;;===*&",
"**==--;;;:>>>>,111*=*=*=X.XoO@$$$$#+XXX.==**=*11<<<,>,>::;;=-*=====-=;;;::>>>>,<11=*=*==X.Xoo@#$$$@OoXX.==**==11,<,,>>>:::;=-**&",
"**==--;:;>>::><<11*==*==X.Xoo@$$$$#XoXX.=*===*11<<,,>>>;::-========*=-;;::>:>>,<11*===*=X .O+@$$$$@XoXX.=*==**111<,,>>>;:;-===*&",
"**==-;;;:>>>>>,111*==*==.XXOO@$$$$#+X X.==**=*11,<,,>,>::;;--=****==-;;;::>>,,<<11***=*=X.oO+@$$$$#OXX..===*=*11<<<,>,>:::;=-=*&",
"**===--;;::>>,<122*=*==*X.XO@@$$$$#+OX..==*=**211<,,>,:>::--==*&**===--;:::>>,<122*==*==..XO##$$$$@oOXX.==**=*11<<,,,>::::;-==*&",
"**==--::>:,>,,<112**=*==..XO+#$$$$#++X.X=*===*221<,>>::;:--===*&**=--;::>:,,,,<111=*=*==..oOo@$$$$@@+X .=*==**221<,>::>;;;-===**",
"&*=--;:::>,>,,<,11*=**==.X X+#$$$$@OoXX.==**=*111,>>>>>:;;;-==****===;;::>,>,,<<11*=*=*=.X.X+#$$$$@+OX.X===*=*111<>>>>::;;--==**",
"&*===-;:;>>>,,<<11*===*=.XXoX#$$$$@OOX.X==*=**11<<>::>>;:;-=========--;:;>:,,,<<12**=*==.XXOo@$$$$#oOX.X=*=*=*11<<>>:>:;;;====**",
"&**==;:::>,>,<<<11*=**==.XXX+#$$$$@ooX.X=*===*111,>>>>:;;;;===-=*====-:::>>>,,1,11*=*===..XX+#$$$$#+oX.X==*==*11<,>>>>>:;;;==-**",
"&&==-;;:;>:>>,<<11*==*==..XO+@#$$$$+X...===***11<,,>>>::;;-==----==-=;:::>>,,,1111**=*==..XO+@$$$$#OXX X==*==*11<,>:>>::;;-=*=**",
"&*=-=-;::>>>><<<12*==**=.X.X+@$$$$@+O..X=**==*21<<>>:>::;;-;--;--;---;;:::>>,,<111==*=*=.X.Xo@$$$$#oo...=*=*=*21<<>>:>>;;;;-==**",
"**===;;:::>>,,,<11*=*=*-..Xoo@$$$$@+OX.X=====*11<<,>:>::;;:;:;::;;;;;;;;:>,>>,,<11=*=**=..XOo@$$$$#OoX.X==*=**11<1,>>>:;;;-===**",
"&**==;;::>>,,,<<11***===...O+#$$$#@oo...=*=*=*11<,>>>>::;:::::::;;;;;;;::>>,,,<111**====.X.o+@$$$$#ooX..=*===*111,,>>:::;;---=**",
"&*==-;:::>>:>><<11*=**==.X.OO@$$$$@+oX .*==*=*11<,>>:>::::>::;::;::;:;::;>>>>><<11**=*==...OO#$$$$$+o...==*==&11<<>>:>::;;;===**",
"&*===-;::>>>>,<<12*===*=...oO@$$$$@O+ ..==*==*211<>>>::>>::>>>>:>:::::::::>>>><<12*===*=X..o+#$$$$@+OX.X=**==*11<,>:>>::;;--*=**",
"&**-=-;::>>>>><<11***===...Oo#$$$$#+O..X=*==**11<<>>>:>>>>>>>>>>:>>>>>:>>>:,>>,<11****=-..Xoo#$$$$@+o...===*=*11<<>>:>::;;-====*",
"&*-=-;;:::>>>,,111*==*==. Xo+#$$$$#+oX..==**=*221<>:>>>>,>>,>>>>:>>>:>>>:>>:>,<111*===*=...o+#$$$#@OOX..=*===*21<<>>:>::;;-===**",
"**=-=-:::>>>,,<<21*==*==..Xo+#$$$$@ooX..=*===*22<,>>>>>><>>,,,,>>,>>>>:>>:>>>><<12**=**=..XoO@$$$$@OXXX.=**=**22<,,>:>;::;--==*&",
"&*===;;::>>,>,,<11***=*=...oO$$$$$#OXX..===*=*121<>,>>>>,,,,<,,,,>>>>,,>>>>>>>,<11*=*===...oO#$$$$@+XX..=====*22<<>>>>::;:--==**",
"&**==;;::>>>>><<11*=*===.. +o@$$$$#+OX..=**==*21<<,<<,<<<,<<<<<<1,,<,<<<,<<<,<<<21**=*==...Oo#$$$$#+OX .===*=*211<>>:>::;;-===**",
"&*==--:::>>,,><<11**=*==..Xoo#$$$$#OXo.X===*=*21<<<<<<<<<<<1,<<11<<<<<<<<<<1<<<<11**====..XX+$$$$$$+oX .=**==*12<,>>>>::;;;=-***",
"&*==--:::>>>:>,<11*==**=..Xo@#$$$$$OoX .===*=*211111111111111112211111111112221212==*===..Xo@#$$$$#ooX..=*===*211<>:>:::;;;===**",
"&*=-=-;::>>>>><<21=**===..XoO#$$$$#Oo...*=*==*211211112111111211211112111112222122**=**=..XoO#$$$$#+o.X.==**=*21<<,>>:>:;;--==*&",
"&*===;;:>>:>,,<<11**==*=..XO+#$$$$#OOX X==*==*****=*=****==*************&************===..XOo#$$$$#+oX .==*=**121<>>>>>:;;-===**",
"&*==--;;:>>>,,,<11=*=*==...o+#$$$$#Oo...===**=*=*=***=*=**=**==*===*=*=====*=*===*===*==...o+#$$$$#Oo.X.=*===*211,>>>:::;;;=-=**",
"&*==-;;:::,:,,<<12*=***=..oo+@$$$$@+o...==*===*=*=***====*=*=**=*==*==*==*==*==*==*==*==..oo+#$$$$$+oX..=*===*12<<,>>>::;;--=*=*",
"&*==--;::>>>>,,<11*=====...oO@$$$$@O+X..=*===**==*====**==*====*==*==**=*==*=*==**==*===...OO#$$$$#+O...===*=*11,<>>:>>::;;--=*&",
"&*===-:::>>>,,<<21**=*==X.XOO+$$$$$OXX.X=*=*=*=*==*=*==***=**=*=*=*=*==**=*==*=*=*=**=*=...OO+$$$$#+oXX.=**==*211,,>>>::;;--==**",
"&*-=-;;;::>>,,,<11*=*===...oO@$$$$$+o ..======-========-=-==============================..XX+@$$$$#Oo...==*==*11<<,>>>:::;--===*",
"**-*--;;>:>>>>,111=*=**=...o+#$$$$#Ooo........X...X...... . ......XXXX...X.....X.X....X....Oo#$$$$#+XX..=*==**21<<>>>,>>;;--==*&",
"&**=--;:::>>>,<112*=====..Xo+#$$$$#Oo.X........... .......X.XX.XX......X..... ...........XXoO@$$$$#OO...===*=*211,>>>::::;;=-=*&",
"&*=---;;>:>:>>,<11*=*===X.Xoo+$$$$$OoXX.X..X.XX.X.. X....XXXXX oXoXX..X X.XXoX.oX X. .XXX..oo@$$$$$OoXX.=*=*=*11<,>>>>>:::---=**",
"&**=-;;::>>>>><<11**=**=.. Oo@$$$$@oOooooOOooOoooOoXoOoOoOXoXOX++oOoooOooOooXoOooo+ooOoooOoO+#$$$$#OOX..==*==*11<<,:>>::;;---=**",
"&**--;;:;>>>>>,<12*===*=.X.oO@#$$$$+ooOOO++++OO++o+++o++OoO++o+o++Oo+o+o+O+OoO+OOOOOOO+o+O+o+@$$$$#OoX..==*==*12<<,,>>:>;;;--=*&",
"&*==--;;:::>>,<<11*=**==...oo@$$$$##@@#@@@@######$@@#@@#@@@@##@@#@#######@##@@#$#@#$##$$##$##@$$$$@Oo...===**=11<,>,>>::::--==*&",
"&*=-=-;::>>>>>,<12*==*==...oO@$$$$$$$$$$$$$$$$$$$$$$$$$$$$$$$$$$$$$$$$$$$$$$$$$$$$$$$$$$$$$$$$$$$$+OoX..=*=*=*11<,>,>>:::;;===**",
"&&===;;;>:>>>,,111**====..Xo+#$$$$$$$$$$$$$$$$$$$$$$$$$$$$$$$$$$$$$$$$$$$$$$$$$$$$$$$$$$$$$$$$$$$$@oOX..==*==*111<,>:>>::;---=*&",
"&*==--:::>>>>><111*==*==..Xoo@#$$$$$$$$$$$$$$$$$$$$$$$$$$$$$$$$$$$$$$$$#$$$$$$$$$$$$$$$#$$$$$$$$$$@ooX..=*==**111,,>>>:::;;===*&",
"&*===;;:::>>>>,<11*==**=...OO@$$$$$$$$$$$$$$$$$$$$$@$$$$$$$$$$$$$$$$$$$$$$$$$$$$$$$$$$$$$$$$$$$$$$@Oo...==*==*21<<>>>:>::;---**&",
"&*-=-;;:::>>>>,<11*=*===...oO@##@@########$#####$@#@@@#$#####@@@##@@##@@##@@#$##$#@###@@##@+@#@##@@oo...==*==*11<<,>>>>:;;---**&",
"&*=---;;:>>:>,<111*===*=X.XoOOOoooOOOOO+++++OO+o+++OOO++ooOOOo+@O+XO++oO++oO++oo@+o+O+O+OOooOOOooOOOo.X.=*==**21<,>>>>:;:;;=-=&&",
"**=-=-;;::>>>,,<21*===*=...OXoooOOooOoooooOooOoooOXoooOooOooooO+oXoooXoOOoooooOooo+oOooooooOooXooOooO..X===*=*11<<>>>>>::;;-==&&",
"**=--;:::>>>>,<<11**=*==..XX...X.X.XX.Xo.X.X...Xo.Xo XX..X.XXXXoXXXXXXX....X...X.XX o.X..XX.X..X.X.XX...=**==*21<,>>:>>::;-===*&",
"&*===-;::>:>>>,112*=**==.X..X..... X.....X .X...................XX.X.X.X......X........... ....... .....===***21<,,,>>::;;;-==*&",
"**=---;::>>>>><<21*===*=......................X...X....X.XX.XXX..........X......X......X....X.....X..X..=*===*11<<,,>>>:;;-===*&",
"*===--;:::>:>><<11*=*=====================================================-=====================-=========****11<,>>>:>::;--==*&",
"&*==-=;::>>>>>,112**=*=**=*==*===**==*=**=*=*=*====**==*=*=*=**==**==*==*=*=*==**=*====*=**=*=*==**==**=*====*12<<,>>>>::;;===*&",
"**=--;;:;>:>>,<<21*==**===*==**=====**===*=*===**==*=**==**=*==**=*==**=*=*==*====*===*====*==*=*==**==*=**==*11<<>>>:>::;--==*&",
"***-=-;;::>>>,,112*==*=**==**==**=**==*====*=*=*==*==*====*===*==*=*=*=**===*==**==***=**=*=*==*=*====*=*==*=*11<,,>>,:::;;===*&",
"**==-;;;:::>>><<21*==**=*======*=*==*===*==*=*==*===*==**===*=====*=**=*=*=**=*=*=*===*==*==*====*==*=======**21<<>>>>>>:;---=&&",
"*====-;;:>>>>><<12**=**=********=***********=**********************=*==************=*****=********************11<<,,>::::;;===*&",
"&*==-;;;::>>:,<1121211111112212121121221122221122222212111211112111111111211212121112111111121211112112212222221<<,>>>>::;;=-=*&",
"**==--;;:::>:><<111111211211111111111112111112112112211111111112111111111111111111111111121111111221111111112111<,>>>>>::;--==*&",
"**=-=;;;:::>>,,<1<<<<1<<<1<<<<<<1<<1<<<<<1<111<<<<<<<<1<<<<<1<<11<<,<1<<<1<<1<<<<<<<<<<<<1<<<<<111<<<<11<1<1<<<1<<>,>>>:::--==**",
"***==-;;::>:>,<<<<<,<,,<,<,<,<<,<,,<<,<,<,<,<,<<<<<,<<<,,<<,,,<<<<<11<,<<<<,<,1,,<<<<,<,<,,<<,,,<,,<,,<,<,<,<<<<,<>>>>:::;;-=**&",
"***=--;;::>>>>>>>,,,>>>>>,,>>>>>,>>>,>>>>>,,>>,>>>>>>>>>,,>>,>>,,<,,,,,,>,>,>>,>>>,>,>,,>,,,>,>>,>>,,,>>>>>>,,,>>>>>,>>::;-===*&",
"**==--;::::>>:>>>>,>>>>>,>>>>>>>>>>>>>>>>>>,>>>:>>>>:>:>>>>>>>>>,,,,,>,,>>>>,>>,>>,>>>>>>>>>>:>>>,>,>,>>>>>>>>::>:>>>>>:::---=*&",
"**===-;;:>>:>,>>>>>>:>>>>>:>>>>:>>>>>>>>>>>>>:>>>:>:>:>>>>>:>>>>,,,>,>>>>>>>>,>>>>>>>>>>>>:>>>>>>>>:>>>>>>>>>>>>>::>:>>:::;-=-&&",
"**===;;:;:>>>:>>>>>>>>>>>>>>>>>>>>:>:>:>:>>>>>:>:>>>>:>:>:>>>>::,,:>>>>>>>:>>>>>:>:>>:>>>>>>>:>>>>>>>::>>::>:>:>:>>>>>>:;:-=-**&",
"**===-;;::>:>>>>>>:>:>>:::>>:>:>>::>:>>>:>>::>:::::::>::::::::::>>>>>>:>:>>>>>>>>>>>:>>:>:>>>>>:>::>>>>>:>>::>>:>:>:::::::-===*&",
"**==--;;::::>:::::>:::::::::::::::::>:::::;::;:::::::;::::::::::::;:;:::::::::::>:::::::::::;:::::::::::::;::;::;:;::;:::;;-==*&",
"**==--;;::::::::::::::;:::;::;:::;:;;::::;::;;;;;:;:;;;;;;:;;:;;::::::;:::::::::::::::::;:;::;:::::;:;:::;::;;;;;;;:;:;;:;--*=*&",
"**===;;;;:;:;;;:;;;;;;:;;;;:;;;;:;;;;:;;;;:;;;;;;;;;;;;;;;;;;;;;:;:;:;;;;:;:;;;:;;;;;;;;;;;;;;;;;;:-;:;;;;;;;;;:;;:;;-;;;-;===*&",
"*===---;;--;-;;---;--;;--;--;--;;-;;-;---=---;-;-;----=;--;---;-;--;;=;;;-;;-;;--;;--;-;---;---;-;;;-;--;=----;--;-----;--;--=*&",
"**=*=-===-=-===--=-=-==-=---=-====---=------==--==--=-==-==-====---==-=-=======--==-=--=-------=-=-=--=-----=-=-==--==---=====*&",
"**===-====-=-====-==========-=-=-===----==--====-==-====-==*=======-=-==-=-=-========-====-=-=-======--===-=====-=====*======***",
"**=*===*==*-==*-=======-=*==*======-*======*-====*=================*===*==*===*==-===*=-=*==*=====--============*=============*&",
"*******************************&****=***=**=****&******************************************&**&*********=****=*******=*********&",
"**&&&&&*&&&&&&&&&&&&&&&&&*&&&&&&&&&&*&&&&*&*&*&*&****************&&&&&&&&&&&*&&*&&&&&&&&&&&&&&&&&*&&********&*&*&***************"
};
